<svg width="169" height="35" viewBox="0 0 169 35" fill="none" xmlns="http://www.w3.org/2000/svg">
<g clip-path="url(#clip0_651_128)">
<mask id="mask0_651_128" style="mask-type:luminance" maskUnits="userSpaceOnUse" x="0" y="0" width="169" height="35">
<path d="M169 0H0V35H169V0Z" fill="white"/>
</mask>
<g mask="url(#mask0_651_128)">
<path d="M159 0H10C4.47715 0 0 4.47715 0 10V25C0 30.5228 4.47715 35 10 35H159C164.523 35 169 30.5228 169 25V10C169 4.47715 164.523 0 159 0Z" fill="url(#paint0_linear_651_128)"/>
<mask id="mask1_651_128" style="mask-type:alpha" maskUnits="userSpaceOnUse" x="0" y="0" width="169" height="35">
<path d="M159 0H10C4.47715 0 0 4.47715 0 10V25C0 30.5228 4.47715 35 10 35H159C164.523 35 169 30.5228 169 25V10C169 4.47715 164.523 0 159 0Z" fill="#2A2A2A"/>
</mask>
<g mask="url(#mask1_651_128)">
<path d="M65.4558 24.3408C88.3164 29.0855 100.856 46.8445 104.268 55.131C84.9199 35.0482 57.3752 33.4645 46.0215 35.183C62.718 -10.6466 104.582 -8.10643 123.427 -1.10762C107.52 8.94438 105.026 37.5788 105.767 50.6396C97.786 31.7683 79.0535 24.2567 70.6849 22.8598C82.1969 19.09 93.195 23.2579 97.255 25.8132C99.0324 14.5801 104.561 5.42371 107.103 2.24975C84.5976 1.26728 69.961 16.5678 65.4558 24.3408Z" fill="white" fill-opacity="0.2"/>
<path d="M-23.4209 -77.6775C80.4931 -158.518 99.8187 -279.576 96.4921 -330C48.48 -180.255 -86.9994 -103.77 -148.738 -84.2459C49.6922 106.215 255.27 -10.7057 333.256 -92.9738C227.758 -104.311 143.954 -243.042 115.239 -310.991C121.754 -195.636 45.6127 -111.052 6.72777 -83.1796C74.3658 -92.7148 119.672 -141.149 133.87 -164.175C170.789 -111.737 221.531 -79.1352 242.286 -69.3891C130.82 -8.47409 18.7039 -49.5335 -23.4209 -77.6775Z" fill="url(#paint1_linear_651_128)" fill-opacity="0.3" style="mix-blend-mode:overlay"/>
</g>
<mask id="mask2_651_128" style="mask-type:luminance" maskUnits="userSpaceOnUse" x="32" y="12" width="12" height="12">
<path d="M44 12H32V24H44V12Z" fill="white"/>
</mask>
<g mask="url(#mask2_651_128)">
<path d="M41.2905 13.0701L38.158 12.0257C38.0554 11.9915 37.9446 11.9915 37.842 12.0257L34.7095 13.0701C34.2115 13.2355 33.7782 13.5537 33.4713 13.9795C33.1644 14.4052 32.9995 14.9168 33 15.4416V18.0001C33 21.7816 37.6 23.8702 37.797 23.9572C37.8609 23.9856 37.9301 24.0002 38 24.0002C38.0699 24.0002 38.1391 23.9856 38.203 23.9572C38.4 23.8702 43 21.7816 43 18.0001V15.4416C43.0005 14.9168 42.8356 14.4052 42.5287 13.9795C42.2218 13.5537 41.7885 13.2355 41.2905 13.0701ZM40.359 16.8586L38.223 18.9946C38.1356 19.0826 38.0316 19.1523 37.917 19.1998C37.8024 19.2473 37.6795 19.2715 37.5555 19.2711H37.539C37.4124 19.2692 37.2876 19.2416 37.172 19.19C37.0564 19.1384 36.9525 19.0641 36.8665 18.9712L35.7135 17.7711C35.6636 17.7248 35.6236 17.6688 35.5961 17.6065C35.5686 17.5442 35.5542 17.4768 35.5536 17.4087C35.553 17.3406 35.5664 17.2731 35.5929 17.2103C35.6193 17.1475 35.6583 17.0908 35.7075 17.0437C35.7566 16.9965 35.8149 16.96 35.8787 16.9362C35.9426 16.9124 36.0106 16.9018 36.0786 16.9052C36.1466 16.9086 36.2132 16.9259 36.2744 16.9559C36.3355 16.986 36.3898 17.0283 36.434 17.0801L37.556 18.2501L39.65 16.1501C39.7443 16.059 39.8706 16.0087 40.0017 16.0099C40.1328 16.011 40.2582 16.0635 40.3509 16.1562C40.4436 16.2489 40.4962 16.3744 40.4973 16.5055C40.4985 16.6366 40.4481 16.7629 40.357 16.8572L40.359 16.8586Z" fill="white"/>
</g>
<path d="M54.3798 20.08H51.9798L51.5298 21.5H50.0698L52.4898 14.61H53.8898L56.2898 21.5H54.7998L54.3798 20.08ZM52.3498 18.93H54.0098L53.7398 18.05L53.1998 16.23H53.1598L52.6298 18.02L52.3498 18.93ZM57.4868 20.29C57.6401 20.1767 57.7701 20.0433 57.8768 19.89C57.9834 19.73 58.0701 19.5367 58.1368 19.31C58.2101 19.0833 58.2668 18.82 58.3068 18.52C58.3468 18.2133 58.3768 17.8533 58.3968 17.44L58.5268 14.61H63.1868C63.1868 15.5633 63.1868 16.5133 63.1868 17.46C63.1934 18.4 63.1968 19.3467 63.1968 20.3H63.7968V23.04H62.5468V21.5H58.2268V23.04H56.9768V20.29H57.4868ZM59.7568 15.82L59.6768 17.47C59.6634 17.7633 59.6468 18.0433 59.6268 18.31C59.6068 18.57 59.5768 18.82 59.5368 19.06C59.4968 19.2933 59.4401 19.5167 59.3668 19.73C59.2934 19.9367 59.1934 20.1267 59.0668 20.3H61.8368V15.82H59.7568ZM70.5119 17.8L69.8719 19.07L69.0919 20.55H68.1019L67.3319 19.1L66.6619 17.8H66.6219V21.5H65.2619V14.61H66.5219L67.7519 17.04L68.5819 18.74H68.6419L69.4819 17L70.6619 14.61H71.9219V21.5H70.5519V17.8H70.5119ZM77.7435 17.01L77.0635 18.06C76.9835 18.1867 76.8835 18.3433 76.7635 18.53C76.6501 18.71 76.5235 18.9067 76.3835 19.12C76.2435 19.3333 76.1001 19.5533 75.9535 19.78C75.8068 20.0067 75.6635 20.2267 75.5235 20.44C75.3901 20.6533 75.2635 20.8533 75.1435 21.04C75.0235 21.22 74.9235 21.3733 74.8435 21.5H73.6035V14.61H74.9635V19.14H75.0035L76.4435 16.89L77.9135 14.61H79.1635V21.5H77.7935V17.01H77.7435ZM84.7515 21.5V18.62H82.2115V21.5H80.8415V14.61H82.2115V17.38H84.7515V14.61H86.1415V21.5H84.7515ZM91.9564 17.01L91.2764 18.06C91.1964 18.1867 91.0964 18.3433 90.9764 18.53C90.863 18.71 90.7364 18.9067 90.5964 19.12C90.4564 19.3333 90.313 19.5533 90.1664 19.78C90.0197 20.0067 89.8764 20.2267 89.7364 20.44C89.603 20.6533 89.4764 20.8533 89.3564 21.04C89.2364 21.22 89.1364 21.3733 89.0564 21.5H87.8164V14.61H89.1764V19.14H89.2164L90.6564 16.89L92.1264 14.61H93.3764V21.5H92.0064V17.01H91.9564ZM99.1144 16.28C98.9011 16.1 98.6711 15.9767 98.4244 15.91C98.1777 15.8367 97.9377 15.8 97.7044 15.8C97.5511 15.8 97.3977 15.8233 97.2444 15.87C97.0911 15.91 96.9544 15.98 96.8344 16.08C96.7144 16.18 96.6144 16.31 96.5344 16.47C96.4611 16.63 96.4244 16.8233 96.4244 17.05V19.06C96.4244 19.2867 96.4611 19.48 96.5344 19.64C96.6144 19.7933 96.7144 19.92 96.8344 20.02C96.9611 20.12 97.0977 20.1933 97.2444 20.24C97.3977 20.2867 97.5511 20.31 97.7044 20.31C97.9377 20.31 98.1711 20.2767 98.4044 20.21C98.6444 20.1433 98.8844 20.0167 99.1244 19.83L99.7744 20.89C99.5211 21.1033 99.2111 21.27 98.8444 21.39C98.4777 21.51 98.0911 21.57 97.6844 21.57C97.3577 21.57 97.0377 21.5233 96.7244 21.43C96.4111 21.3367 96.1311 21.2 95.8844 21.02C95.6377 20.8333 95.4377 20.6033 95.2844 20.33C95.1311 20.05 95.0544 19.7233 95.0544 19.35V16.77C95.0544 16.4033 95.1277 16.0833 95.2744 15.81C95.4277 15.53 95.6244 15.2967 95.8644 15.11C96.1111 14.9233 96.3911 14.7833 96.7044 14.69C97.0177 14.5967 97.3377 14.55 97.6644 14.55C98.0644 14.55 98.4477 14.6033 98.8144 14.71C99.1877 14.8167 99.5077 14.9867 99.7744 15.22L99.1144 16.28ZM103.9 15.85V21.5H102.53V15.85H100.7V14.61H105.72V15.85H103.9ZM108.294 17.67H109.694C110.007 17.67 110.244 17.5833 110.404 17.41C110.564 17.2367 110.644 17.02 110.644 16.76C110.644 16.4933 110.56 16.2733 110.394 16.1C110.234 15.9267 110 15.84 109.694 15.84H108.294V17.67ZM110.004 14.61C110.344 14.61 110.637 14.6767 110.884 14.81C111.13 14.9367 111.334 15.1033 111.494 15.31C111.66 15.5167 111.78 15.75 111.854 16.01C111.934 16.2633 111.974 16.5133 111.974 16.76C111.974 17.0133 111.927 17.2667 111.834 17.52C111.747 17.7733 111.617 18.0033 111.444 18.21C111.277 18.4167 111.067 18.5867 110.814 18.72C110.567 18.8467 110.284 18.91 109.964 18.91H108.294V21.5H106.924V14.61H110.004ZM116.985 20.08H114.585L114.135 21.5H112.675L115.095 14.61H116.495L118.895 21.5H117.405L116.985 20.08ZM114.955 18.93H116.615L116.345 18.05L115.805 16.23H115.765L115.235 18.02L114.955 18.93ZM122.802 15.85V21.5H121.432V15.85H119.602V14.61H124.622V15.85H122.802ZM131.086 19.3C131.086 19.6733 131.016 20 130.876 20.28C130.736 20.56 130.546 20.7967 130.306 20.99C130.066 21.1833 129.783 21.33 129.456 21.43C129.136 21.5233 128.796 21.57 128.436 21.57C128.076 21.57 127.733 21.5233 127.406 21.43C127.086 21.33 126.806 21.1833 126.566 20.99C126.326 20.7967 126.136 20.56 125.996 20.28C125.856 20 125.786 19.6733 125.786 19.3V16.77C125.786 16.4033 125.859 16.08 126.006 15.8C126.153 15.52 126.349 15.2867 126.596 15.1C126.843 14.9133 127.126 14.7733 127.446 14.68C127.766 14.5867 128.096 14.54 128.436 14.54C128.776 14.54 129.106 14.59 129.426 14.69C129.746 14.79 130.029 14.9367 130.276 15.13C130.523 15.3167 130.719 15.5533 130.866 15.84C131.013 16.12 131.086 16.4433 131.086 16.81V19.3ZM129.706 17.05C129.706 16.8233 129.669 16.6333 129.596 16.48C129.523 16.32 129.426 16.19 129.306 16.09C129.186 15.99 129.049 15.9167 128.896 15.87C128.749 15.8233 128.596 15.8 128.436 15.8C128.276 15.8 128.119 15.8233 127.966 15.87C127.813 15.9167 127.676 15.99 127.556 16.09C127.436 16.19 127.339 16.32 127.266 16.48C127.193 16.6333 127.156 16.8233 127.156 17.05V19.06C127.156 19.2867 127.193 19.48 127.266 19.64C127.339 19.8 127.436 19.93 127.556 20.03C127.676 20.13 127.813 20.2033 127.966 20.25C128.119 20.29 128.276 20.31 128.436 20.31C128.596 20.31 128.749 20.29 128.896 20.25C129.049 20.2033 129.186 20.13 129.306 20.03C129.426 19.93 129.523 19.8 129.596 19.64C129.669 19.48 129.706 19.2867 129.706 19.06V17.05ZM134.073 17.67H135.473C135.786 17.67 136.023 17.5833 136.183 17.41C136.343 17.2367 136.423 17.02 136.423 16.76C136.423 16.4933 136.34 16.2733 136.173 16.1C136.013 15.9267 135.78 15.84 135.473 15.84H134.073V17.67ZM135.783 14.61C136.123 14.61 136.416 14.6767 136.663 14.81C136.91 14.9367 137.113 15.1033 137.273 15.31C137.44 15.5167 137.56 15.75 137.633 16.01C137.713 16.2633 137.753 16.5133 137.753 16.76C137.753 17.0133 137.706 17.2667 137.613 17.52C137.526 17.7733 137.396 18.0033 137.223 18.21C137.056 18.4167 136.846 18.5867 136.593 18.72C136.346 18.8467 136.063 18.91 135.743 18.91H134.073V21.5H132.703V14.61H135.783Z" fill="white"/>
<path d="M159 1H10C5.02944 1 1 5.02944 1 10V25C1 29.9706 5.02944 34 10 34H159C163.971 34 168 29.9706 168 25V10C168 5.02944 163.971 1 159 1Z" stroke="url(#paint2_linear_651_128)" stroke-width="2"/>
</g>
</g>
<defs>
<linearGradient id="paint0_linear_651_128" x1="169" y1="35" x2="1.12391e-06" y2="-5.4269e-06" gradientUnits="userSpaceOnUse">
<stop stop-color="#17461E"/>
<stop offset="0.501962" stop-color="#33FF5F"/>
<stop offset="1" stop-color="#17461E"/>
</linearGradient>
<linearGradient id="paint1_linear_651_128" x1="94.2337" y1="19.0034" x2="93.536" y2="-9.08058" gradientUnits="userSpaceOnUse">
<stop stop-color="white"/>
<stop offset="1" stop-color="#999999" stop-opacity="0"/>
</linearGradient>
<linearGradient id="paint2_linear_651_128" x1="84" y1="35" x2="84" y2="-4.23554e-06" gradientUnits="userSpaceOnUse">
<stop stop-color="#8AFF7F"/>
<stop offset="1" stop-color="#8BFF74" stop-opacity="0"/>
</linearGradient>
<clipPath id="clip0_651_128">
<rect width="169" height="35" fill="white"/>
</clipPath>
</defs>
</svg>
