<svg width="169" height="35" viewBox="0 0 169 35" fill="none" xmlns="http://www.w3.org/2000/svg">
<g clip-path="url(#clip0_647_105)">
<mask id="mask0_647_105" style="mask-type:luminance" maskUnits="userSpaceOnUse" x="0" y="0" width="169" height="35">
<path d="M169 0H0V35H169V0Z" fill="white"/>
<path d="M0 10C0 4.47715 4.47715 0 10 0H159C164.523 0 169 4.47715 169 10V25C169 30.5228 164.523 35 159 35H10C4.47716 35 0 30.5228 0 25V10Z" fill="white"/>
</mask>
<g mask="url(#mask0_647_105)">
<path d="M159 0H10C4.47715 0 0 4.47715 0 10V25C0 30.5228 4.47715 35 10 35H159C164.523 35 169 30.5228 169 25V10C169 4.47715 164.523 0 159 0Z" fill="url(#paint0_linear_647_105)"/>
<mask id="mask1_647_105" style="mask-type:alpha" maskUnits="userSpaceOnUse" x="0" y="0" width="169" height="35">
<path d="M159 0H10C4.47715 0 0 4.47715 0 10V25C0 30.5228 4.47715 35 10 35H159C164.523 35 169 30.5228 169 25V10C169 4.47715 164.523 0 159 0Z" fill="#2A2A2A"/>
</mask>
<g mask="url(#mask1_647_105)">
<path d="M65.4558 24.3408C88.3164 29.0855 100.856 46.8445 104.268 55.131C84.9199 35.0482 57.3752 33.4645 46.0215 35.183C62.718 -10.6466 104.582 -8.10643 123.427 -1.10762C107.52 8.94438 105.026 37.5788 105.767 50.6396C97.786 31.7683 79.0535 24.2567 70.6849 22.8598C82.1969 19.09 93.195 23.2579 97.255 25.8132C99.0324 14.5801 104.561 5.42371 107.103 2.24975C84.5976 1.26728 69.961 16.5678 65.4558 24.3408Z" fill="white" fill-opacity="0.2"/>
<path d="M-23.4209 -77.6775C80.4931 -158.518 99.8187 -279.576 96.4921 -330C48.48 -180.255 -86.9994 -103.77 -148.738 -84.2459C49.6922 106.215 255.27 -10.7057 333.256 -92.9738C227.758 -104.311 143.954 -243.042 115.239 -310.991C121.754 -195.636 45.6127 -111.052 6.72777 -83.1796C74.3658 -92.7148 119.672 -141.149 133.87 -164.175C170.789 -111.737 221.531 -79.1352 242.286 -69.3891C130.82 -8.47409 18.7039 -49.5335 -23.4209 -77.6775Z" fill="url(#paint1_linear_647_105)" fill-opacity="0.3" style="mix-blend-mode:overlay"/>
</g>
<mask id="mask2_647_105" style="mask-type:luminance" maskUnits="userSpaceOnUse" x="14" y="10" width="15" height="15">
<path d="M29 10H14V25H29V10Z" fill="white"/>
</mask>
<g mask="url(#mask2_647_105)">
<path d="M22.084 10.127C22.1917 10.091 22.3083 10.091 22.416 10.127L26.3311 11.4326H26.332C26.9344 11.6328 27.4588 12.0181 27.8301 12.5332C28.2012 13.0481 28.401 13.667 28.4004 14.3018V17.5C28.4004 19.8204 26.9885 21.6295 25.5293 22.8789C24.0716 24.127 22.5819 24.8019 22.4629 24.8545V24.8555C22.3959 24.8852 22.3232 24.9004 22.25 24.9004C22.1768 24.9004 22.1041 24.8852 22.0371 24.8555V24.8545C21.9181 24.8019 20.4284 24.127 18.9707 22.8789C17.5115 21.6295 16.0996 19.8204 16.0996 17.5V14.3018C16.099 13.667 16.2988 13.0481 16.6699 12.5332C17.0412 12.0181 17.5656 11.6328 18.168 11.4326H18.1689L22.084 10.127ZM24.7529 14.9121C24.5628 14.9104 24.3799 14.9841 24.2432 15.1162L24.2412 15.1172L21.6963 17.6689L20.3643 16.2812C20.3172 16.227 20.2628 16.1797 20.2021 16.1416L20.1367 16.1055L19.999 16.0537C19.9516 16.0414 19.9028 16.0337 19.8535 16.0312C19.8042 16.0288 19.7546 16.0316 19.7061 16.0391L19.5635 16.0762C19.4711 16.1106 19.3866 16.164 19.3154 16.2324C19.2442 16.3006 19.1877 16.3828 19.1494 16.4736C19.111 16.5646 19.0909 16.6629 19.0918 16.7617C19.0927 16.8604 19.1134 16.9584 19.1533 17.0488C19.1923 17.137 19.2493 17.216 19.3193 17.2822V17.2832L20.7598 18.7812V18.7822C20.8764 18.9081 21.0172 19.0091 21.1738 19.0791C21.3306 19.1491 21.5002 19.1858 21.6719 19.1885H21.6943C21.8625 19.189 22.0291 19.1562 22.1846 19.0918C22.3398 19.0274 22.4802 18.9327 22.5986 18.8135L22.5996 18.8145L25.2695 16.1436L25.3506 16.0625L25.3369 16.0527C25.4236 15.9296 25.4731 15.7834 25.4717 15.6309C25.4701 15.441 25.3939 15.2593 25.2598 15.125C25.1254 14.9906 24.9431 14.9137 24.7529 14.9121Z" fill="white" stroke="black" stroke-width="0.2"/>
</g>
<path d="M159 1H10C5.02944 1 1 5.02944 1 10V25C1 29.9706 5.02944 34 10 34H159C163.971 34 168 29.9706 168 25V10C168 5.02944 163.971 1 159 1Z" stroke="url(#paint2_linear_647_105)" stroke-width="2"/>
</g>
<mask id="path-10-outside-1_647_105" maskUnits="userSpaceOnUse" x="34" y="8" width="118" height="19" fill="black">
<rect fill="white" x="34" y="8" width="118" height="19"/>
<path d="M34.7031 23V12.0909H39.4332C40.2642 12.0909 40.962 12.2028 41.5266 12.4265C42.0948 12.6502 42.5227 12.9663 42.8104 13.3746C43.1016 13.783 43.2472 14.2642 43.2472 14.8182C43.2472 15.2195 43.1584 15.5852 42.9808 15.9155C42.8068 16.2457 42.5618 16.5227 42.2457 16.7464C41.9297 16.9666 41.5604 17.1193 41.1378 17.2045V17.3111C41.6065 17.3288 42.0327 17.4478 42.4162 17.668C42.7997 17.8846 43.1051 18.1847 43.3324 18.5682C43.5597 18.9482 43.6733 19.3956 43.6733 19.9105C43.6733 20.5071 43.517 21.038 43.2045 21.5032C42.8956 21.9684 42.4553 22.3342 41.8835 22.6005C41.3118 22.8668 40.63 23 39.8381 23H34.7031ZM37.6648 20.6349H39.0497C39.5469 20.6349 39.9197 20.5426 40.1683 20.358C40.4169 20.1697 40.5412 19.8928 40.5412 19.527C40.5412 19.2713 40.4826 19.0547 40.3654 18.8771C40.2482 18.6996 40.0813 18.5646 39.8647 18.4723C39.6516 18.38 39.3942 18.3338 39.0923 18.3338H37.6648V20.6349ZM37.6648 16.5014H38.8793C39.1385 16.5014 39.3675 16.4606 39.5664 16.3789C39.7653 16.2972 39.9197 16.18 40.0298 16.0273C40.1435 15.8711 40.2003 15.6811 40.2003 15.4574C40.2003 15.12 40.0795 14.8626 39.8381 14.685C39.5966 14.5039 39.2912 14.4134 38.9219 14.4134H37.6648V16.5014ZM55.2908 17.5455C55.2908 18.7599 55.0547 19.7844 54.5824 20.619C54.1101 21.4499 53.4727 22.0803 52.6701 22.5099C51.8675 22.9361 50.9727 23.1491 49.9854 23.1491C48.9911 23.1491 48.0927 22.9343 47.2901 22.5046C46.4911 22.0714 45.8555 21.4393 45.3832 20.6083C44.9144 19.7738 44.68 18.7528 44.68 17.5455C44.68 16.331 44.9144 15.3082 45.3832 14.4773C45.8555 13.6428 46.4911 13.0124 47.2901 12.5863C48.0927 12.1566 48.9911 11.9418 49.9854 11.9418C50.9727 11.9418 51.8675 12.1566 52.6701 12.5863C53.4727 13.0124 54.1101 13.6428 54.5824 14.4773C55.0547 15.3082 55.2908 16.331 55.2908 17.5455ZM52.244 17.5455C52.244 16.892 52.157 16.3416 51.983 15.8942C51.8125 15.4432 51.5586 15.1023 51.2212 14.8714C50.8874 14.6371 50.4755 14.5199 49.9854 14.5199C49.4954 14.5199 49.0817 14.6371 48.7443 14.8714C48.4105 15.1023 48.1566 15.4432 47.9826 15.8942C47.8121 16.3416 47.7269 16.892 47.7269 17.5455C47.7269 18.1989 47.8121 18.7511 47.9826 19.2021C48.1566 19.6495 48.4105 19.9904 48.7443 20.2248C49.0817 20.4556 49.4954 20.571 49.9854 20.571C50.4755 20.571 50.8874 20.4556 51.2212 20.2248C51.5586 19.9904 51.8125 19.6495 51.983 19.2021C52.157 18.7511 52.244 18.1989 52.244 17.5455ZM62.5418 15.5C62.5134 15.1449 62.3802 14.8679 62.1423 14.669C61.9079 14.4702 61.551 14.3707 61.0716 14.3707C60.7662 14.3707 60.5159 14.408 60.3206 14.4826C60.1288 14.5536 59.9868 14.6513 59.8944 14.7756C59.8021 14.8999 59.7542 15.0419 59.7506 15.2017C59.7435 15.3331 59.7666 15.4521 59.8199 15.5586C59.8767 15.6616 59.9655 15.7557 60.0862 15.8409C60.2069 15.9226 60.3614 15.9972 60.5496 16.0646C60.7378 16.1321 60.9616 16.1925 61.2208 16.2457L62.1157 16.4375C62.7194 16.5653 63.2361 16.734 63.6657 16.9435C64.0954 17.1531 64.447 17.3999 64.7204 17.6839C64.9939 17.9645 65.1945 18.2805 65.3224 18.6321C65.4537 18.9837 65.5212 19.3672 65.5248 19.7827C65.5212 20.5 65.3419 21.1072 64.9868 21.6044C64.6317 22.1016 64.1238 22.4798 63.4633 22.739C62.8064 22.9982 62.0162 23.1278 61.093 23.1278C60.1448 23.1278 59.3174 22.9876 58.6107 22.707C57.9076 22.4265 57.3607 21.995 56.9701 21.4126C56.583 20.8267 56.3877 20.0774 56.3841 19.1648H59.1966C59.2144 19.4986 59.2979 19.7791 59.447 20.0064C59.5961 20.2337 59.8057 20.4059 60.0756 20.5231C60.349 20.6403 60.6739 20.6989 61.0503 20.6989C61.3664 20.6989 61.6309 20.6598 61.844 20.5817C62.0571 20.5036 62.2187 20.3952 62.3287 20.2567C62.4388 20.1183 62.4956 19.9602 62.4992 19.7827C62.4956 19.6158 62.4406 19.4702 62.3341 19.3459C62.2311 19.218 62.0606 19.1044 61.8227 19.005C61.5848 18.902 61.2634 18.8061 60.8586 18.7173L59.7719 18.483C58.806 18.2734 58.0443 17.9237 57.4868 17.4336C56.9328 16.94 56.6576 16.267 56.6611 15.4148C56.6576 14.7223 56.8422 14.1168 57.2151 13.5984C57.5915 13.0763 58.1118 12.6697 58.7758 12.3786C59.4434 12.0874 60.2087 11.9418 61.0716 11.9418C61.9523 11.9418 62.714 12.0891 63.3568 12.3839C63.9996 12.6786 64.4949 13.0941 64.843 13.6303C65.1945 14.163 65.3721 14.7862 65.3756 15.5H62.5418ZM72.532 15.5C72.5036 15.1449 72.3705 14.8679 72.1325 14.669C71.8982 14.4702 71.5413 14.3707 71.0619 14.3707C70.7565 14.3707 70.5061 14.408 70.3108 14.4826C70.1191 14.5536 69.977 14.6513 69.8847 14.7756C69.7923 14.8999 69.7444 15.0419 69.7409 15.2017C69.7338 15.3331 69.7568 15.4521 69.8101 15.5586C69.8669 15.6616 69.9557 15.7557 70.0764 15.8409C70.1972 15.9226 70.3517 15.9972 70.5399 16.0646C70.7281 16.1321 70.9518 16.1925 71.211 16.2457L72.1059 16.4375C72.7096 16.5653 73.2263 16.734 73.656 16.9435C74.0857 17.1531 74.4372 17.3999 74.7107 17.6839C74.9841 17.9645 75.1847 18.2805 75.3126 18.6321C75.444 18.9837 75.5115 19.3672 75.515 19.7827C75.5115 20.5 75.3321 21.1072 74.977 21.6044C74.6219 22.1016 74.1141 22.4798 73.4536 22.739C72.7966 22.9982 72.0065 23.1278 71.0832 23.1278C70.135 23.1278 69.3076 22.9876 68.6009 22.707C67.8978 22.4265 67.3509 21.995 66.9603 21.4126C66.5732 20.8267 66.3779 20.0774 66.3744 19.1648H69.1869C69.2046 19.4986 69.2881 19.7791 69.4372 20.0064C69.5864 20.2337 69.7959 20.4059 70.0658 20.5231C70.3392 20.6403 70.6642 20.6989 71.0406 20.6989C71.3566 20.6989 71.6212 20.6598 71.8343 20.5817C72.0473 20.5036 72.2089 20.3952 72.319 20.2567C72.4291 20.1183 72.4859 19.9602 72.4894 19.7827C72.4859 19.6158 72.4308 19.4702 72.3243 19.3459C72.2213 19.218 72.0509 19.1044 71.8129 19.005C71.575 18.902 71.2536 18.8061 70.8488 18.7173L69.7622 18.483C68.7963 18.2734 68.0345 17.9237 67.477 17.4336C66.923 16.94 66.6478 16.267 66.6514 15.4148C66.6478 14.7223 66.8325 14.1168 67.2053 13.5984C67.5818 13.0763 68.102 12.6697 68.7661 12.3786C69.4337 12.0874 70.199 11.9418 71.0619 11.9418C71.9426 11.9418 72.7043 12.0891 73.347 12.3839C73.9898 12.6786 74.4852 13.0941 74.8332 13.6303C75.1847 14.163 75.3623 14.7862 75.3659 15.5H72.532ZM83.4012 8.57528V26.5156H80.5248V8.57528H83.4012ZM88.6973 23V12.0909H93.4061C94.2157 12.0909 94.9242 12.2383 95.5314 12.533C96.1387 12.8278 96.611 13.2521 96.9483 13.8061C97.2857 14.3601 97.4544 15.0241 97.4544 15.7983C97.4544 16.5795 97.2804 17.2383 96.9324 17.7745C96.5879 18.3107 96.1032 18.7156 95.4782 18.989C94.8567 19.2624 94.1305 19.3991 93.2995 19.3991H90.487V17.098H92.7029C93.051 17.098 93.3475 17.0554 93.5925 16.9702C93.8411 16.8814 94.0311 16.7411 94.1625 16.5494C94.2974 16.3576 94.3649 16.1072 94.3649 15.7983C94.3649 15.4858 94.2974 15.2319 94.1625 15.0366C94.0311 14.8377 93.8411 14.6921 93.5925 14.5998C93.3475 14.5039 93.051 14.456 92.7029 14.456H91.6589V23H88.6973ZM95.0893 17.9929L97.8166 23H94.5993L91.9359 17.9929H95.0893ZM105.173 12.0909H108.134V19.0795C108.134 19.9105 107.936 20.6296 107.538 21.2369C107.144 21.8406 106.593 22.3075 105.887 22.6378C105.18 22.9645 104.36 23.1278 103.426 23.1278C102.485 23.1278 101.661 22.9645 100.954 22.6378C100.247 22.3075 99.6969 21.8406 99.3027 21.2369C98.9121 20.6296 98.7168 19.9105 98.7168 19.0795V12.0909H101.678V18.8239C101.678 19.1612 101.753 19.4631 101.902 19.7294C102.051 19.9922 102.257 20.1982 102.52 20.3473C102.786 20.4964 103.088 20.571 103.426 20.571C103.767 20.571 104.068 20.4964 104.331 20.3473C104.594 20.1982 104.8 19.9922 104.949 19.7294C105.098 19.4631 105.173 19.1612 105.173 18.8239V12.0909ZM115.423 15.5C115.394 15.1449 115.261 14.8679 115.023 14.669C114.789 14.4702 114.432 14.3707 113.953 14.3707C113.647 14.3707 113.397 14.408 113.201 14.4826C113.01 14.5536 112.868 14.6513 112.775 14.7756C112.683 14.8999 112.635 15.0419 112.631 15.2017C112.624 15.3331 112.647 15.4521 112.701 15.5586C112.758 15.6616 112.846 15.7557 112.967 15.8409C113.088 15.9226 113.242 15.9972 113.43 16.0646C113.619 16.1321 113.842 16.1925 114.102 16.2457L114.997 16.4375C115.6 16.5653 116.117 16.734 116.547 16.9435C116.976 17.1531 117.328 17.3999 117.601 17.6839C117.875 17.9645 118.075 18.2805 118.203 18.6321C118.335 18.9837 118.402 19.3672 118.406 19.7827C118.402 20.5 118.223 21.1072 117.868 21.6044C117.513 22.1016 117.005 22.4798 116.344 22.739C115.687 22.9982 114.897 23.1278 113.974 23.1278C113.026 23.1278 112.198 22.9876 111.492 22.707C110.788 22.4265 110.242 21.995 109.851 21.4126C109.464 20.8267 109.269 20.0774 109.265 19.1648H112.078C112.095 19.4986 112.179 19.7791 112.328 20.0064C112.477 20.2337 112.687 20.4059 112.956 20.5231C113.23 20.6403 113.555 20.6989 113.931 20.6989C114.247 20.6989 114.512 20.6598 114.725 20.5817C114.938 20.5036 115.1 20.3952 115.21 20.2567C115.32 20.1183 115.377 19.9602 115.38 19.7827C115.377 19.6158 115.321 19.4702 115.215 19.3459C115.112 19.218 114.941 19.1044 114.704 19.005C114.466 18.902 114.144 18.8061 113.739 18.7173L112.653 18.483C111.687 18.2734 110.925 17.9237 110.368 17.4336C109.814 16.94 109.538 16.267 109.542 15.4148C109.538 14.7223 109.723 14.1168 110.096 13.5984C110.472 13.0763 110.993 12.6697 111.657 12.3786C112.324 12.0874 113.09 11.9418 113.953 11.9418C114.833 11.9418 115.595 12.0891 116.238 12.3839C116.88 12.6786 117.376 13.0941 117.724 13.6303C118.075 14.163 118.253 14.7862 118.256 15.5H115.423ZM119.234 14.4773V12.0909H128.715V14.4773H125.434V23H122.515V14.4773H119.234ZM129.83 23V12.0909H137.692V14.4773H132.792V16.3523H137.287V18.7386H132.792V20.6136H137.671V23H129.83ZM139.161 12.0909H142.847L145.383 18.2699H145.511L148.046 12.0909H151.732V23H148.834V16.6932H148.749L146.32 22.9148H144.573L142.144 16.6506H142.059V23H139.161V12.0909Z"/>
</mask>
<path d="M34.7031 23V12.0909H39.4332C40.2642 12.0909 40.962 12.2028 41.5266 12.4265C42.0948 12.6502 42.5227 12.9663 42.8104 13.3746C43.1016 13.783 43.2472 14.2642 43.2472 14.8182C43.2472 15.2195 43.1584 15.5852 42.9808 15.9155C42.8068 16.2457 42.5618 16.5227 42.2457 16.7464C41.9297 16.9666 41.5604 17.1193 41.1378 17.2045V17.3111C41.6065 17.3288 42.0327 17.4478 42.4162 17.668C42.7997 17.8846 43.1051 18.1847 43.3324 18.5682C43.5597 18.9482 43.6733 19.3956 43.6733 19.9105C43.6733 20.5071 43.517 21.038 43.2045 21.5032C42.8956 21.9684 42.4553 22.3342 41.8835 22.6005C41.3118 22.8668 40.63 23 39.8381 23H34.7031ZM37.6648 20.6349H39.0497C39.5469 20.6349 39.9197 20.5426 40.1683 20.358C40.4169 20.1697 40.5412 19.8928 40.5412 19.527C40.5412 19.2713 40.4826 19.0547 40.3654 18.8771C40.2482 18.6996 40.0813 18.5646 39.8647 18.4723C39.6516 18.38 39.3942 18.3338 39.0923 18.3338H37.6648V20.6349ZM37.6648 16.5014H38.8793C39.1385 16.5014 39.3675 16.4606 39.5664 16.3789C39.7653 16.2972 39.9197 16.18 40.0298 16.0273C40.1435 15.8711 40.2003 15.6811 40.2003 15.4574C40.2003 15.12 40.0795 14.8626 39.8381 14.685C39.5966 14.5039 39.2912 14.4134 38.9219 14.4134H37.6648V16.5014ZM55.2908 17.5455C55.2908 18.7599 55.0547 19.7844 54.5824 20.619C54.1101 21.4499 53.4727 22.0803 52.6701 22.5099C51.8675 22.9361 50.9727 23.1491 49.9854 23.1491C48.9911 23.1491 48.0927 22.9343 47.2901 22.5046C46.4911 22.0714 45.8555 21.4393 45.3832 20.6083C44.9144 19.7738 44.68 18.7528 44.68 17.5455C44.68 16.331 44.9144 15.3082 45.3832 14.4773C45.8555 13.6428 46.4911 13.0124 47.2901 12.5863C48.0927 12.1566 48.9911 11.9418 49.9854 11.9418C50.9727 11.9418 51.8675 12.1566 52.6701 12.5863C53.4727 13.0124 54.1101 13.6428 54.5824 14.4773C55.0547 15.3082 55.2908 16.331 55.2908 17.5455ZM52.244 17.5455C52.244 16.892 52.157 16.3416 51.983 15.8942C51.8125 15.4432 51.5586 15.1023 51.2212 14.8714C50.8874 14.6371 50.4755 14.5199 49.9854 14.5199C49.4954 14.5199 49.0817 14.6371 48.7443 14.8714C48.4105 15.1023 48.1566 15.4432 47.9826 15.8942C47.8121 16.3416 47.7269 16.892 47.7269 17.5455C47.7269 18.1989 47.8121 18.7511 47.9826 19.2021C48.1566 19.6495 48.4105 19.9904 48.7443 20.2248C49.0817 20.4556 49.4954 20.571 49.9854 20.571C50.4755 20.571 50.8874 20.4556 51.2212 20.2248C51.5586 19.9904 51.8125 19.6495 51.983 19.2021C52.157 18.7511 52.244 18.1989 52.244 17.5455ZM62.5418 15.5C62.5134 15.1449 62.3802 14.8679 62.1423 14.669C61.9079 14.4702 61.551 14.3707 61.0716 14.3707C60.7662 14.3707 60.5159 14.408 60.3206 14.4826C60.1288 14.5536 59.9868 14.6513 59.8944 14.7756C59.8021 14.8999 59.7542 15.0419 59.7506 15.2017C59.7435 15.3331 59.7666 15.4521 59.8199 15.5586C59.8767 15.6616 59.9655 15.7557 60.0862 15.8409C60.2069 15.9226 60.3614 15.9972 60.5496 16.0646C60.7378 16.1321 60.9616 16.1925 61.2208 16.2457L62.1157 16.4375C62.7194 16.5653 63.2361 16.734 63.6657 16.9435C64.0954 17.1531 64.447 17.3999 64.7204 17.6839C64.9939 17.9645 65.1945 18.2805 65.3224 18.6321C65.4537 18.9837 65.5212 19.3672 65.5248 19.7827C65.5212 20.5 65.3419 21.1072 64.9868 21.6044C64.6317 22.1016 64.1238 22.4798 63.4633 22.739C62.8064 22.9982 62.0162 23.1278 61.093 23.1278C60.1448 23.1278 59.3174 22.9876 58.6107 22.707C57.9076 22.4265 57.3607 21.995 56.9701 21.4126C56.583 20.8267 56.3877 20.0774 56.3841 19.1648H59.1966C59.2144 19.4986 59.2979 19.7791 59.447 20.0064C59.5961 20.2337 59.8057 20.4059 60.0756 20.5231C60.349 20.6403 60.6739 20.6989 61.0503 20.6989C61.3664 20.6989 61.6309 20.6598 61.844 20.5817C62.0571 20.5036 62.2187 20.3952 62.3287 20.2567C62.4388 20.1183 62.4956 19.9602 62.4992 19.7827C62.4956 19.6158 62.4406 19.4702 62.3341 19.3459C62.2311 19.218 62.0606 19.1044 61.8227 19.005C61.5848 18.902 61.2634 18.8061 60.8586 18.7173L59.7719 18.483C58.806 18.2734 58.0443 17.9237 57.4868 17.4336C56.9328 16.94 56.6576 16.267 56.6611 15.4148C56.6576 14.7223 56.8422 14.1168 57.2151 13.5984C57.5915 13.0763 58.1118 12.6697 58.7758 12.3786C59.4434 12.0874 60.2087 11.9418 61.0716 11.9418C61.9523 11.9418 62.714 12.0891 63.3568 12.3839C63.9996 12.6786 64.4949 13.0941 64.843 13.6303C65.1945 14.163 65.3721 14.7862 65.3756 15.5H62.5418ZM72.532 15.5C72.5036 15.1449 72.3705 14.8679 72.1325 14.669C71.8982 14.4702 71.5413 14.3707 71.0619 14.3707C70.7565 14.3707 70.5061 14.408 70.3108 14.4826C70.1191 14.5536 69.977 14.6513 69.8847 14.7756C69.7923 14.8999 69.7444 15.0419 69.7409 15.2017C69.7338 15.3331 69.7568 15.4521 69.8101 15.5586C69.8669 15.6616 69.9557 15.7557 70.0764 15.8409C70.1972 15.9226 70.3517 15.9972 70.5399 16.0646C70.7281 16.1321 70.9518 16.1925 71.211 16.2457L72.1059 16.4375C72.7096 16.5653 73.2263 16.734 73.656 16.9435C74.0857 17.1531 74.4372 17.3999 74.7107 17.6839C74.9841 17.9645 75.1847 18.2805 75.3126 18.6321C75.444 18.9837 75.5115 19.3672 75.515 19.7827C75.5115 20.5 75.3321 21.1072 74.977 21.6044C74.6219 22.1016 74.1141 22.4798 73.4536 22.739C72.7966 22.9982 72.0065 23.1278 71.0832 23.1278C70.135 23.1278 69.3076 22.9876 68.6009 22.707C67.8978 22.4265 67.3509 21.995 66.9603 21.4126C66.5732 20.8267 66.3779 20.0774 66.3744 19.1648H69.1869C69.2046 19.4986 69.2881 19.7791 69.4372 20.0064C69.5864 20.2337 69.7959 20.4059 70.0658 20.5231C70.3392 20.6403 70.6642 20.6989 71.0406 20.6989C71.3566 20.6989 71.6212 20.6598 71.8343 20.5817C72.0473 20.5036 72.2089 20.3952 72.319 20.2567C72.4291 20.1183 72.4859 19.9602 72.4894 19.7827C72.4859 19.6158 72.4308 19.4702 72.3243 19.3459C72.2213 19.218 72.0509 19.1044 71.8129 19.005C71.575 18.902 71.2536 18.8061 70.8488 18.7173L69.7622 18.483C68.7963 18.2734 68.0345 17.9237 67.477 17.4336C66.923 16.94 66.6478 16.267 66.6514 15.4148C66.6478 14.7223 66.8325 14.1168 67.2053 13.5984C67.5818 13.0763 68.102 12.6697 68.7661 12.3786C69.4337 12.0874 70.199 11.9418 71.0619 11.9418C71.9426 11.9418 72.7043 12.0891 73.347 12.3839C73.9898 12.6786 74.4852 13.0941 74.8332 13.6303C75.1847 14.163 75.3623 14.7862 75.3659 15.5H72.532ZM83.4012 8.57528V26.5156H80.5248V8.57528H83.4012ZM88.6973 23V12.0909H93.4061C94.2157 12.0909 94.9242 12.2383 95.5314 12.533C96.1387 12.8278 96.611 13.2521 96.9483 13.8061C97.2857 14.3601 97.4544 15.0241 97.4544 15.7983C97.4544 16.5795 97.2804 17.2383 96.9324 17.7745C96.5879 18.3107 96.1032 18.7156 95.4782 18.989C94.8567 19.2624 94.1305 19.3991 93.2995 19.3991H90.487V17.098H92.7029C93.051 17.098 93.3475 17.0554 93.5925 16.9702C93.8411 16.8814 94.0311 16.7411 94.1625 16.5494C94.2974 16.3576 94.3649 16.1072 94.3649 15.7983C94.3649 15.4858 94.2974 15.2319 94.1625 15.0366C94.0311 14.8377 93.8411 14.6921 93.5925 14.5998C93.3475 14.5039 93.051 14.456 92.7029 14.456H91.6589V23H88.6973ZM95.0893 17.9929L97.8166 23H94.5993L91.9359 17.9929H95.0893ZM105.173 12.0909H108.134V19.0795C108.134 19.9105 107.936 20.6296 107.538 21.2369C107.144 21.8406 106.593 22.3075 105.887 22.6378C105.18 22.9645 104.36 23.1278 103.426 23.1278C102.485 23.1278 101.661 22.9645 100.954 22.6378C100.247 22.3075 99.6969 21.8406 99.3027 21.2369C98.9121 20.6296 98.7168 19.9105 98.7168 19.0795V12.0909H101.678V18.8239C101.678 19.1612 101.753 19.4631 101.902 19.7294C102.051 19.9922 102.257 20.1982 102.52 20.3473C102.786 20.4964 103.088 20.571 103.426 20.571C103.767 20.571 104.068 20.4964 104.331 20.3473C104.594 20.1982 104.8 19.9922 104.949 19.7294C105.098 19.4631 105.173 19.1612 105.173 18.8239V12.0909ZM115.423 15.5C115.394 15.1449 115.261 14.8679 115.023 14.669C114.789 14.4702 114.432 14.3707 113.953 14.3707C113.647 14.3707 113.397 14.408 113.201 14.4826C113.01 14.5536 112.868 14.6513 112.775 14.7756C112.683 14.8999 112.635 15.0419 112.631 15.2017C112.624 15.3331 112.647 15.4521 112.701 15.5586C112.758 15.6616 112.846 15.7557 112.967 15.8409C113.088 15.9226 113.242 15.9972 113.43 16.0646C113.619 16.1321 113.842 16.1925 114.102 16.2457L114.997 16.4375C115.6 16.5653 116.117 16.734 116.547 16.9435C116.976 17.1531 117.328 17.3999 117.601 17.6839C117.875 17.9645 118.075 18.2805 118.203 18.6321C118.335 18.9837 118.402 19.3672 118.406 19.7827C118.402 20.5 118.223 21.1072 117.868 21.6044C117.513 22.1016 117.005 22.4798 116.344 22.739C115.687 22.9982 114.897 23.1278 113.974 23.1278C113.026 23.1278 112.198 22.9876 111.492 22.707C110.788 22.4265 110.242 21.995 109.851 21.4126C109.464 20.8267 109.269 20.0774 109.265 19.1648H112.078C112.095 19.4986 112.179 19.7791 112.328 20.0064C112.477 20.2337 112.687 20.4059 112.956 20.5231C113.23 20.6403 113.555 20.6989 113.931 20.6989C114.247 20.6989 114.512 20.6598 114.725 20.5817C114.938 20.5036 115.1 20.3952 115.21 20.2567C115.32 20.1183 115.377 19.9602 115.38 19.7827C115.377 19.6158 115.321 19.4702 115.215 19.3459C115.112 19.218 114.941 19.1044 114.704 19.005C114.466 18.902 114.144 18.8061 113.739 18.7173L112.653 18.483C111.687 18.2734 110.925 17.9237 110.368 17.4336C109.814 16.94 109.538 16.267 109.542 15.4148C109.538 14.7223 109.723 14.1168 110.096 13.5984C110.472 13.0763 110.993 12.6697 111.657 12.3786C112.324 12.0874 113.09 11.9418 113.953 11.9418C114.833 11.9418 115.595 12.0891 116.238 12.3839C116.88 12.6786 117.376 13.0941 117.724 13.6303C118.075 14.163 118.253 14.7862 118.256 15.5H115.423ZM119.234 14.4773V12.0909H128.715V14.4773H125.434V23H122.515V14.4773H119.234ZM129.83 23V12.0909H137.692V14.4773H132.792V16.3523H137.287V18.7386H132.792V20.6136H137.671V23H129.83ZM139.161 12.0909H142.847L145.383 18.2699H145.511L148.046 12.0909H151.732V23H148.834V16.6932H148.749L146.32 22.9148H144.573L142.144 16.6506H142.059V23H139.161V12.0909Z" fill="white"/>
<path d="M34.7031 23H34.5031V23.2H34.7031V23ZM34.7031 12.0909V11.8909H34.5031V12.0909H34.7031ZM41.5266 12.4265L41.453 12.6124L41.4534 12.6126L41.5266 12.4265ZM42.8104 13.3746L42.6469 13.4898L42.6475 13.4908L42.8104 13.3746ZM42.9808 15.9155L42.8047 15.8208L42.8039 15.8223L42.9808 15.9155ZM42.2457 16.7464L42.3601 16.9106L42.3613 16.9097L42.2457 16.7464ZM41.1378 17.2045L41.0982 17.0085L40.9378 17.0409V17.2045H41.1378ZM41.1378 17.3111H40.9378V17.5036L41.1302 17.5109L41.1378 17.3111ZM42.4162 17.668L42.3166 17.8414L42.3178 17.8421L42.4162 17.668ZM43.3324 18.5682L43.1603 18.6701L43.1607 18.6708L43.3324 18.5682ZM43.2045 21.5032L43.0385 21.3917L43.0379 21.3925L43.2045 21.5032ZM41.8835 22.6005L41.7991 22.4192V22.4192L41.8835 22.6005ZM37.6648 20.6349H37.4648V20.8349H37.6648V20.6349ZM40.1683 20.358L40.2876 20.5185L40.2891 20.5174L40.1683 20.358ZM39.8647 18.4723L39.7852 18.6558L39.7863 18.6563L39.8647 18.4723ZM37.6648 18.3338V18.1338H37.4648V18.3338H37.6648ZM37.6648 16.5014H37.4648V16.7014H37.6648V16.5014ZM39.5664 16.3789L39.6424 16.5639L39.6424 16.5639L39.5664 16.3789ZM40.0298 16.0273L39.8681 15.9097L39.8676 15.9104L40.0298 16.0273ZM39.8381 14.685L39.7181 14.845L39.7196 14.8461L39.8381 14.685ZM37.6648 14.4134V14.2134H37.4648V14.4134H37.6648ZM34.7031 23H34.9031V12.0909H34.7031H34.5031V23H34.7031ZM34.7031 12.0909V12.2909H39.4332V12.0909V11.8909H34.7031V12.0909ZM39.4332 12.0909V12.2909C40.2477 12.2909 40.9187 12.4007 41.453 12.6124L41.5266 12.4265L41.6003 12.2406C41.0053 12.0048 40.2807 11.8909 39.4332 11.8909V12.0909ZM41.5266 12.4265L41.4534 12.6126C41.9933 12.8252 42.3863 13.1199 42.6469 13.4898L42.8104 13.3746L42.9739 13.2595C42.6592 12.8127 42.1963 12.4752 41.5999 12.2404L41.5266 12.4265ZM42.8104 13.3746L42.6475 13.4908C42.912 13.8617 43.0472 14.3013 43.0472 14.8182H43.2472H43.4472C43.4472 14.2271 43.2911 13.7043 42.9732 13.2585L42.8104 13.3746ZM43.2472 14.8182H43.0472C43.0472 15.1888 42.9655 15.5217 42.8047 15.8208L42.9808 15.9155L43.157 16.0102C43.3513 15.6488 43.4472 15.2501 43.4472 14.8182H43.2472ZM42.9808 15.9155L42.8039 15.8223C42.6451 16.1236 42.4215 16.377 42.1302 16.5832L42.2457 16.7464L42.3613 16.9097C42.702 16.6685 42.9685 16.3679 43.1578 16.0087L42.9808 15.9155ZM42.2457 16.7464L42.1314 16.5823C41.8404 16.7851 41.4972 16.928 41.0982 17.0085L41.1378 17.2045L41.1773 17.4006C41.6236 17.3106 42.019 17.1481 42.3601 16.9106L42.2457 16.7464ZM41.1378 17.2045H40.9378V17.3111H41.1378H41.3378V17.2045H41.1378ZM41.1378 17.3111L41.1302 17.5109C41.5686 17.5275 41.9629 17.6383 42.3166 17.8414L42.4162 17.668L42.5158 17.4945C42.1025 17.2572 41.6444 17.1301 41.1454 17.1112L41.1378 17.3111ZM42.4162 17.668L42.3178 17.8421C42.6705 18.0413 42.9507 18.3163 43.1603 18.6701L43.3324 18.5682L43.5044 18.4662C43.2596 18.053 42.9289 17.7279 42.5146 17.4938L42.4162 17.668ZM43.3324 18.5682L43.1607 18.6708C43.3666 19.015 43.4733 19.4258 43.4733 19.9105H43.6733H43.8733C43.8733 19.3654 43.7527 18.8813 43.504 18.4655L43.3324 18.5682ZM43.6733 19.9105H43.4733C43.4733 20.4701 43.3274 20.9616 43.0385 21.3917L43.2045 21.5032L43.3706 21.6147C43.7067 21.1144 43.8733 20.5441 43.8733 19.9105H43.6733ZM43.2045 21.5032L43.0379 21.3925C42.7519 21.8233 42.3419 22.1663 41.7991 22.4192L41.8835 22.6005L41.968 22.7818C42.5686 22.502 43.0393 22.1135 43.3712 21.6138L43.2045 21.5032ZM41.8835 22.6005L41.7991 22.4192C41.2596 22.6705 40.608 22.8 39.8381 22.8V23V23.2C40.6519 23.2 41.3639 23.0632 41.968 22.7818L41.8835 22.6005ZM39.8381 23V22.8H34.7031V23V23.2H39.8381V23ZM37.6648 20.6349V20.8349H39.0497V20.6349V20.4349H37.6648V20.6349ZM39.0497 20.6349V20.8349C39.5658 20.8349 39.9892 20.7401 40.2876 20.5185L40.1683 20.358L40.0491 20.1974C39.8502 20.3451 39.5279 20.4349 39.0497 20.4349V20.6349ZM40.1683 20.358L40.2891 20.5174C40.5966 20.2846 40.7412 19.9431 40.7412 19.527H40.5412H40.3412C40.3412 19.8424 40.2372 20.0549 40.0476 20.1985L40.1683 20.358ZM40.5412 19.527H40.7412C40.7412 19.2401 40.6751 18.9833 40.5323 18.767L40.3654 18.8771L40.1985 18.9873C40.2901 19.1261 40.3412 19.3025 40.3412 19.527H40.5412ZM40.3654 18.8771L40.5323 18.767C40.3912 18.5532 40.1918 18.3943 39.9431 18.2883L39.8647 18.4723L39.7863 18.6563C39.9708 18.7349 40.1052 18.846 40.1985 18.9873L40.3654 18.8771ZM39.8647 18.4723L39.9442 18.2888C39.6997 18.1828 39.4137 18.1338 39.0923 18.1338V18.3338V18.5338C39.3747 18.5338 39.6035 18.5771 39.7852 18.6558L39.8647 18.4723ZM39.0923 18.3338V18.1338H37.6648V18.3338V18.5338H39.0923V18.3338ZM37.6648 18.3338H37.4648V20.6349H37.6648H37.8648V18.3338H37.6648ZM37.6648 16.5014V16.7014H38.8793V16.5014V16.3014H37.6648V16.5014ZM38.8793 16.5014V16.7014C39.1593 16.7014 39.415 16.6573 39.6424 16.5639L39.5664 16.3789L39.4904 16.1939C39.3201 16.2639 39.1177 16.3014 38.8793 16.3014V16.5014ZM39.5664 16.3789L39.6424 16.5639C39.8708 16.4701 40.0572 16.3314 40.1921 16.1443L40.0298 16.0273L39.8676 15.9104C39.7823 16.0287 39.6598 16.1244 39.4904 16.1939L39.5664 16.3789ZM40.0298 16.0273L40.1916 16.145C40.3339 15.9493 40.4003 15.7165 40.4003 15.4574H40.2003H40.0003C40.0003 15.6458 39.9531 15.7928 39.8681 15.9097L40.0298 16.0273ZM40.2003 15.4574H40.4003C40.4003 15.0656 40.2563 14.7443 39.9565 14.5239L39.8381 14.685L39.7196 14.8461C39.9028 14.9809 40.0003 15.1745 40.0003 15.4574H40.2003ZM39.8381 14.685L39.9581 14.525C39.6748 14.3126 39.3246 14.2134 38.9219 14.2134V14.4134V14.6134C39.2578 14.6134 39.5184 14.6952 39.7181 14.845L39.8381 14.685ZM38.9219 14.4134V14.2134H37.6648V14.4134V14.6134H38.9219V14.4134ZM37.6648 14.4134H37.4648V16.5014H37.6648H37.8648V14.4134H37.6648ZM54.5824 20.619L54.7563 20.7178L54.7564 20.7175L54.5824 20.619ZM52.6701 22.5099L52.7639 22.6866L52.7645 22.6863L52.6701 22.5099ZM47.2901 22.5046L47.1948 22.6804L47.1957 22.6809L47.2901 22.5046ZM45.3832 20.6083L45.2088 20.7063L45.2093 20.7071L45.3832 20.6083ZM45.3832 14.4773L45.2091 14.3788L45.209 14.379L45.3832 14.4773ZM47.2901 12.5863L47.3842 12.7628L47.3845 12.7626L47.2901 12.5863ZM52.6701 12.5863L52.5757 12.7626L52.5763 12.7629L52.6701 12.5863ZM54.5824 14.4773L54.4083 14.5758L54.4085 14.5761L54.5824 14.4773ZM51.983 15.8942L51.7959 15.9649L51.7966 15.9667L51.983 15.8942ZM51.2212 14.8714L51.1063 15.0351L51.1083 15.0365L51.2212 14.8714ZM48.7443 14.8714L48.8581 15.036L48.8584 15.0357L48.7443 14.8714ZM47.9826 15.8942L47.796 15.8222L47.7957 15.823L47.9826 15.8942ZM47.9826 19.2021L47.7955 19.2728L47.7962 19.2745L47.9826 19.2021ZM48.7443 20.2248L48.6294 20.3885L48.6314 20.3898L48.7443 20.2248ZM51.2212 20.2248L51.335 20.3893L51.3353 20.389L51.2212 20.2248ZM51.983 19.2021L51.7964 19.1301L51.7961 19.1309L51.983 19.2021ZM55.2908 17.5455H55.0908C55.0908 18.7345 54.8597 19.723 54.4083 20.5205L54.5824 20.619L54.7564 20.7175C55.2497 19.8459 55.4908 18.7854 55.4908 17.5455H55.2908ZM54.5824 20.619L54.4085 20.5201C53.9539 21.32 53.3433 21.9227 52.5757 22.3336L52.6701 22.5099L52.7645 22.6863C53.602 22.2379 54.2663 21.5798 54.7563 20.7178L54.5824 20.619ZM52.6701 22.5099L52.5763 22.3333C51.8051 22.7428 50.9428 22.9491 49.9854 22.9491V23.1491V23.3491C51.0025 23.3491 51.93 23.1294 52.7639 22.6866L52.6701 22.5099ZM49.9854 23.1491V22.9491C49.021 22.9491 48.1554 22.741 47.3845 22.3283L47.2901 22.5046L47.1957 22.6809C48.0299 23.1276 48.9613 23.3491 49.9854 23.3491V23.1491ZM47.2901 22.5046L47.3855 22.3288C46.621 21.9143 46.0119 21.3097 45.557 20.5095L45.3832 20.6083L45.2093 20.7071C45.6991 21.5688 46.3612 22.2284 47.1948 22.6804L47.2901 22.5046ZM45.3832 20.6083L45.5575 20.5104C45.1094 19.7126 44.88 18.7273 44.88 17.5455H44.68H44.48C44.48 18.7783 44.7194 19.835 45.2088 20.7063L45.3832 20.6083ZM44.68 17.5455H44.88C44.88 16.3562 45.1095 15.3694 45.5574 14.5755L45.3832 14.4773L45.209 14.379C44.7193 15.2471 44.48 16.3057 44.48 17.5455H44.68ZM45.3832 14.4773L45.5572 14.5758C46.012 13.7723 46.6208 13.17 47.3842 12.7628L47.2901 12.5863L47.196 12.4098C46.3615 12.8549 45.699 13.5132 45.2091 14.3788L45.3832 14.4773ZM47.2901 12.5863L47.3845 12.7626C48.1554 12.3499 49.021 12.1418 49.9854 12.1418V11.9418V11.7418C48.9613 11.7418 48.0299 11.9633 47.1957 12.41L47.2901 12.5863ZM49.9854 11.9418V12.1418C50.9426 12.1418 51.8046 12.3498 52.5757 12.7626L52.6701 12.5863L52.7645 12.41C51.9305 11.9634 51.0027 11.7418 49.9854 11.7418V11.9418ZM52.6701 12.5863L52.5763 12.7629C53.3433 13.1702 53.9537 13.7725 54.4083 14.5758L54.5824 14.4773L54.7564 14.3788C54.2665 13.513 53.602 12.8547 52.7639 12.4096L52.6701 12.5863ZM54.5824 14.4773L54.4085 14.5761C54.8597 15.3698 55.0908 16.3564 55.0908 17.5455H55.2908H55.4908C55.4908 16.3055 55.2497 15.2466 54.7563 14.3784L54.5824 14.4773ZM52.244 17.5455H52.444C52.444 16.8756 52.355 16.2989 52.1694 15.8217L51.983 15.8942L51.7966 15.9667C51.959 16.3843 52.044 16.9085 52.044 17.5455H52.244ZM51.983 15.8942L52.17 15.8235C51.9878 15.3412 51.711 14.9642 51.3342 14.7064L51.2212 14.8714L51.1083 15.0365C51.4061 15.2403 51.6372 15.5451 51.7959 15.9649L51.983 15.8942ZM51.2212 14.8714L51.3362 14.7078C50.9624 14.4453 50.5082 14.3199 49.9854 14.3199V14.5199V14.7199C50.4428 14.7199 50.8125 14.8288 51.1063 15.0351L51.2212 14.8714ZM49.9854 14.5199V14.3199C49.4626 14.3199 49.0071 14.4453 48.6302 14.7072L48.7443 14.8714L48.8584 15.0357C49.1562 14.8288 49.5281 14.7199 49.9854 14.7199V14.5199ZM48.7443 14.8714L48.6306 14.7069C48.2579 14.9647 47.9816 15.341 47.796 15.8222L47.9826 15.8942L48.1692 15.9662C48.3316 15.5453 48.5632 15.2399 48.8581 15.0359L48.7443 14.8714ZM47.9826 15.8942L47.7957 15.823C47.6141 16.2998 47.5269 16.876 47.5269 17.5455H47.7269H47.9269C47.9269 16.9081 48.0102 16.3834 48.1695 15.9654L47.9826 15.8942ZM47.7269 17.5455H47.5269C47.5269 18.215 47.6141 18.7927 47.7955 19.2728L47.9826 19.2021L48.1697 19.1314C48.0102 18.7094 47.9269 18.1827 47.9269 17.5455H47.7269ZM47.9826 19.2021L47.7962 19.2745C47.9819 19.7521 48.2579 20.1276 48.6294 20.3885L48.7443 20.2248L48.8592 20.0611C48.5631 19.8532 48.3313 19.5469 48.169 19.1296L47.9826 19.2021ZM48.7443 20.2248L48.6314 20.3898C49.0082 20.6476 49.4632 20.771 49.9854 20.771V20.571V20.371C49.5275 20.371 49.1552 20.2636 48.8573 20.0597L48.7443 20.2248ZM49.9854 20.571V20.771C50.5076 20.771 50.9613 20.6477 51.335 20.3893L51.2212 20.2248L51.1075 20.0603C50.8135 20.2636 50.4434 20.371 49.9854 20.371V20.571ZM51.2212 20.2248L51.3353 20.389C51.711 20.1281 51.9875 19.7519 52.1699 19.2733L51.983 19.2021L51.7961 19.1309C51.6375 19.5471 51.4062 19.8528 51.1071 20.0605L51.2212 20.2248ZM51.983 19.2021L52.1695 19.2741C52.3549 18.7936 52.444 18.2154 52.444 17.5455H52.244H52.044C52.044 18.1824 51.959 18.7086 51.7964 19.1301L51.983 19.2021ZM62.5418 15.5L62.3425 15.5159L62.3572 15.7H62.5418V15.5ZM62.1423 14.669L62.0129 14.8215L62.014 14.8225L62.1423 14.669ZM60.3206 14.4826L60.39 14.6702L60.3919 14.6694L60.3206 14.4826ZM59.8944 14.7756L59.7339 14.6563V14.6563L59.8944 14.7756ZM59.7506 15.2017L59.9504 15.2125L59.9506 15.2061L59.7506 15.2017ZM59.8199 15.5586L59.6408 15.6481L59.6448 15.6552L59.8199 15.5586ZM60.0862 15.8409L59.9708 16.0043L59.9741 16.0066L60.0862 15.8409ZM61.2208 16.2457L61.2627 16.0502L61.261 16.0498L61.2208 16.2457ZM62.1157 16.4375L62.0738 16.6331L62.0742 16.6332L62.1157 16.4375ZM64.7204 17.6839L64.5763 17.8226L64.5772 17.8235L64.7204 17.6839ZM65.3224 18.6321L65.1344 18.7005L65.135 18.7021L65.3224 18.6321ZM65.5248 19.7827L65.7248 19.7837L65.7248 19.781L65.5248 19.7827ZM64.9868 21.6044L65.1495 21.7207V21.7207L64.9868 21.6044ZM63.4633 22.739L63.3903 22.5528L63.3899 22.553L63.4633 22.739ZM58.6107 22.707L58.5366 22.8928L58.5369 22.8929L58.6107 22.707ZM56.9701 21.4126L56.8032 21.5229L56.804 21.524L56.9701 21.4126ZM56.3841 19.1648V18.9648H56.1834L56.1841 19.1656L56.3841 19.1648ZM59.1966 19.1648L59.3964 19.1541L59.3863 18.9648H59.1966V19.1648ZM59.447 20.0064L59.2798 20.1161V20.1161L59.447 20.0064ZM60.0756 20.5231L59.9959 20.7065L59.9968 20.7069L60.0756 20.5231ZM61.844 20.5817L61.9129 20.7695V20.7695L61.844 20.5817ZM62.3287 20.2567L62.4853 20.3812V20.3812L62.3287 20.2567ZM62.4992 19.7827L62.6993 19.7867L62.6992 19.7784L62.4992 19.7827ZM62.3341 19.3459L62.1782 19.4714L62.1822 19.476L62.3341 19.3459ZM61.8227 19.005L61.7433 19.1885L61.7456 19.1895L61.8227 19.005ZM60.8586 18.7173L60.9014 18.522L60.9007 18.5218L60.8586 18.7173ZM59.7719 18.483L59.7295 18.6784L59.7298 18.6785L59.7719 18.483ZM57.4868 17.4336L57.3537 17.5829L57.3547 17.5838L57.4868 17.4336ZM56.6611 15.4148L56.8611 15.4156L56.8611 15.4137L56.6611 15.4148ZM57.2151 13.5984L57.0529 13.4814L57.0527 13.4816L57.2151 13.5984ZM58.7758 12.3786L58.6959 12.1952L58.6955 12.1954L58.7758 12.3786ZM63.3568 12.3839L63.2734 12.5657V12.5657L63.3568 12.3839ZM64.843 13.6303L64.6752 13.7392L64.676 13.7405L64.843 13.6303ZM65.3756 15.5V15.7H65.5766L65.5756 15.499L65.3756 15.5ZM62.5418 15.5L62.7412 15.4841C62.7092 15.0841 62.5559 14.7541 62.2706 14.5156L62.1423 14.669L62.014 14.8225C62.2046 14.9817 62.3176 15.2057 62.3425 15.5159L62.5418 15.5ZM62.1423 14.669L62.2717 14.5165C61.9858 14.2739 61.5732 14.1707 61.0716 14.1707V14.3707V14.5707C61.5289 14.5707 61.8301 14.6664 62.0129 14.8215L62.1423 14.669ZM61.0716 14.3707V14.1707C60.7521 14.1707 60.4753 14.2095 60.2492 14.2958L60.3206 14.4826L60.3919 14.6694C60.5565 14.6066 60.7804 14.5707 61.0716 14.5707V14.3707ZM60.3206 14.4826L60.2511 14.295C60.0345 14.3753 59.8557 14.4924 59.7339 14.6563L59.8944 14.7756L60.055 14.8948C60.1179 14.8102 60.2232 14.7319 60.39 14.6701L60.3206 14.4826ZM59.8944 14.7756L59.7339 14.6563C59.616 14.815 59.5551 14.9975 59.5507 15.1973L59.7506 15.2017L59.9506 15.2061C59.9532 15.0863 59.9882 14.9847 60.055 14.8948L59.8944 14.7756ZM59.7506 15.2017L59.5509 15.1909C59.5421 15.3532 59.5706 15.5073 59.641 15.648L59.8199 15.5586L59.9988 15.4692C59.9626 15.3968 59.9449 15.313 59.9503 15.2125L59.7506 15.2017ZM59.8199 15.5586L59.6448 15.6552C59.7194 15.7906 59.8316 15.906 59.9709 16.0043L60.0862 15.8409L60.2015 15.6775C60.0993 15.6054 60.0339 15.5326 59.995 15.462L59.8199 15.5586ZM60.0862 15.8409L59.9741 16.0066C60.1128 16.1004 60.2836 16.1817 60.4821 16.2529L60.5496 16.0646L60.6171 15.8764C60.4393 15.8126 60.3011 15.7448 60.1983 15.6753L60.0862 15.8409ZM60.5496 16.0646L60.4821 16.2529C60.6815 16.3244 60.9148 16.387 61.1805 16.4416L61.2208 16.2457L61.261 16.0498C61.0083 15.9979 60.7941 15.9398 60.6171 15.8764L60.5496 16.0646ZM61.2208 16.2457L61.1789 16.4413L62.0738 16.6331L62.1157 16.4375L62.1576 16.2419L61.2627 16.0502L61.2208 16.2457ZM62.1157 16.4375L62.0742 16.6332C62.6663 16.7585 63.1666 16.9227 63.5781 17.1233L63.6657 16.9435L63.7534 16.7638C63.3055 16.5454 62.7724 16.3721 62.1571 16.2418L62.1157 16.4375ZM63.6657 16.9435L63.5781 17.1233C63.991 17.3247 64.3222 17.5586 64.5763 17.8226L64.7204 17.6839L64.8645 17.5453C64.5718 17.2411 64.1998 16.9814 63.7534 16.7638L63.6657 16.9435ZM64.7204 17.6839L64.5772 17.8235C64.8318 18.0848 65.0167 18.3768 65.1344 18.7005L65.3224 18.6321L65.5103 18.5638C65.3723 18.1843 65.1559 17.8442 64.8637 17.5444L64.7204 17.6839ZM65.3224 18.6321L65.135 18.7021C65.2574 19.0296 65.3214 19.3897 65.3248 19.7844L65.5248 19.7827L65.7248 19.781C65.721 19.3446 65.6501 18.9377 65.5097 18.5621L65.3224 18.6321ZM65.5248 19.7827L65.3248 19.7817C65.3214 20.4651 65.1511 21.0302 64.824 21.4882L64.9868 21.6044L65.1495 21.7207C65.5326 21.1843 65.721 20.5349 65.7248 19.7837L65.5248 19.7827ZM64.9868 21.6044L64.824 21.4882C64.4949 21.949 64.0207 22.3054 63.3903 22.5528L63.4633 22.739L63.5364 22.9252C64.227 22.6541 64.7685 22.2541 65.1495 21.7207L64.9868 21.6044ZM63.4633 22.739L63.3899 22.553C62.7623 22.8006 61.9984 22.9278 61.093 22.9278V23.1278V23.3278C62.034 23.3278 62.8504 23.1958 63.5367 22.925L63.4633 22.739ZM61.093 23.1278V22.9278C60.164 22.9278 59.3627 22.7904 58.6845 22.5211L58.6107 22.707L58.5369 22.8929C59.2721 23.1848 60.1255 23.3278 61.093 23.3278V23.1278ZM58.6107 22.707L58.6848 22.5213C58.016 22.2544 57.5025 21.8474 57.1362 21.3012L56.9701 21.4126L56.804 21.524C57.2189 22.1426 57.7991 22.5986 58.5366 22.8928L58.6107 22.707ZM56.9701 21.4126L57.137 21.3024C56.7769 20.7574 56.5876 20.0492 56.5841 19.164L56.3841 19.1648L56.1841 19.1656C56.1878 20.1056 56.3891 20.896 56.8032 21.5229L56.9701 21.4126ZM56.3841 19.1648V19.3648H59.1966V19.1648V18.9648H56.3841V19.1648ZM59.1966 19.1648L58.9969 19.1754C59.0161 19.5365 59.1072 19.8532 59.2798 20.1161L59.447 20.0064L59.6142 19.8967C59.4885 19.7051 59.4127 19.4607 59.3964 19.1541L59.1966 19.1648ZM59.447 20.0064L59.2798 20.1161C59.4521 20.3787 59.6933 20.5752 59.9959 20.7065L60.0756 20.5231L60.1552 20.3396C59.918 20.2366 59.7402 20.0887 59.6142 19.8967L59.447 20.0064ZM60.0756 20.5231L59.9968 20.7069C60.3008 20.8372 60.6538 20.8989 61.0503 20.8989V20.6989V20.4989C60.6941 20.4989 60.3972 20.4433 60.1543 20.3393L60.0756 20.5231ZM61.0503 20.6989V20.8989C61.3813 20.8989 61.6709 20.8582 61.9129 20.7695L61.844 20.5817L61.7752 20.3939C61.591 20.4614 61.3514 20.4989 61.0503 20.4989V20.6989ZM61.844 20.5817L61.9129 20.7695C62.1508 20.6822 62.3467 20.5555 62.4853 20.3812L62.3287 20.2567L62.1722 20.1323C62.0906 20.235 61.9633 20.3249 61.7752 20.3939L61.844 20.5817ZM62.3287 20.2567L62.4853 20.3812C62.6228 20.2082 62.6947 20.0079 62.6992 19.7867L62.4992 19.7827L62.2992 19.7787C62.2966 19.9126 62.2549 20.0283 62.1722 20.1323L62.3287 20.2567ZM62.4992 19.7827L62.6992 19.7784C62.6946 19.5662 62.6232 19.3759 62.4859 19.2157L62.3341 19.3459L62.1822 19.476C62.258 19.5644 62.2967 19.6653 62.2992 19.7869L62.4992 19.7827ZM62.3341 19.3459L62.4898 19.2204C62.3573 19.0559 62.1526 18.9261 61.8998 18.8204L61.8227 19.005L61.7456 19.1895C61.9687 19.2827 62.1049 19.3801 62.1783 19.4713L62.3341 19.3459ZM61.8227 19.005L61.9022 18.8214C61.6476 18.7112 61.3123 18.6121 60.9014 18.522L60.8586 18.7173L60.8157 18.9127C61.2145 19.0001 61.522 19.0927 61.7433 19.1885L61.8227 19.005ZM60.8586 18.7173L60.9007 18.5218L59.8141 18.2875L59.7719 18.483L59.7298 18.6785L60.8164 18.9128L60.8586 18.7173ZM59.7719 18.483L59.8143 18.2875C58.871 18.0829 58.1437 17.7448 57.6188 17.2834L57.4868 17.4336L57.3547 17.5838C57.9449 18.1026 58.741 18.464 59.7295 18.6784L59.7719 18.483ZM57.4868 17.4336L57.6198 17.2843C57.1152 16.8347 56.8578 16.22 56.8611 15.4156L56.6611 15.4148L56.4611 15.4139C56.4574 16.3141 56.7504 17.0453 57.3537 17.5829L57.4868 17.4336ZM56.6611 15.4148L56.8611 15.4137C56.8578 14.7598 57.0314 14.1964 57.3775 13.7151L57.2151 13.5984L57.0527 13.4816C56.6531 14.0373 56.4574 14.6848 56.4611 15.4158L56.6611 15.4148ZM57.2151 13.5984L57.3773 13.7153C57.7303 13.2258 58.2206 12.8404 58.8562 12.5617L58.7758 12.3786L58.6955 12.1954C58.003 12.4991 57.4528 12.9269 57.0529 13.4814L57.2151 13.5984ZM58.7758 12.3786L58.8558 12.5619C59.494 12.2835 60.2312 12.1418 61.0716 12.1418V11.9418V11.7418C60.1862 11.7418 59.3929 11.8912 58.6959 12.1952L58.7758 12.3786ZM61.0716 11.9418V12.1418C61.9304 12.1418 62.6624 12.2855 63.2734 12.5657L63.3568 12.3839L63.4402 12.2021C62.7657 11.8928 61.9742 11.7418 61.0716 11.7418V11.9418ZM63.3568 12.3839L63.2734 12.5657C63.8855 12.8463 64.35 13.2381 64.6752 13.7392L64.843 13.6303L65.0107 13.5214C64.6399 12.9501 64.1136 12.5109 63.4402 12.2021L63.3568 12.3839ZM64.843 13.6303L64.676 13.7405C65.0037 14.237 65.1722 14.8213 65.1756 15.501L65.3756 15.5L65.5756 15.499C65.5719 14.7512 65.3853 14.089 65.0099 13.5202L64.843 13.6303ZM65.3756 15.5V15.3H62.5418V15.5V15.7H65.3756V15.5ZM72.5321 15.5L72.3327 15.5159L72.3474 15.7H72.5321V15.5ZM72.1325 14.669L72.0031 14.8215L72.0043 14.8225L72.1325 14.669ZM70.3108 14.4826L70.3803 14.6702L70.3822 14.6694L70.3108 14.4826ZM69.8847 14.7756L69.7241 14.6563V14.6563L69.8847 14.7756ZM69.7409 15.2017L69.9407 15.2125L69.9408 15.2061L69.7409 15.2017ZM69.8101 15.5586L69.6311 15.6481L69.635 15.6552L69.8101 15.5586ZM70.0764 15.8409L69.9611 16.0043L69.9644 16.0066L70.0764 15.8409ZM71.211 16.2457L71.2529 16.0502L71.2513 16.0498L71.211 16.2457ZM72.1059 16.4375L72.064 16.6331L72.0645 16.6332L72.1059 16.4375ZM74.7107 17.6839L74.5666 17.8226L74.5674 17.8235L74.7107 17.6839ZM75.3126 18.6321L75.1246 18.7005L75.1252 18.7021L75.3126 18.6321ZM75.515 19.7827L75.715 19.7837L75.715 19.781L75.515 19.7827ZM74.977 21.6044L75.1398 21.7207V21.7207L74.977 21.6044ZM73.4536 22.739L73.3805 22.5528L73.3802 22.553L73.4536 22.739ZM68.6009 22.707L68.5268 22.8928L68.5271 22.8929L68.6009 22.707ZM66.9603 21.4126L66.7934 21.5229L66.7942 21.524L66.9603 21.4126ZM66.3744 19.1648V18.9648H66.1736L66.1744 19.1656L66.3744 19.1648ZM69.1869 19.1648L69.3866 19.1541L69.3765 18.9648H69.1869V19.1648ZM69.4372 20.0064L69.27 20.1161V20.1161L69.4372 20.0064ZM70.0658 20.5231L69.9861 20.7065L69.987 20.7069L70.0658 20.5231ZM71.8343 20.5817L71.9031 20.7695V20.7695L71.8343 20.5817ZM72.319 20.2567L72.4755 20.3812V20.3812L72.319 20.2567ZM72.4894 19.7827L72.6896 19.7867L72.6894 19.7784L72.4894 19.7827ZM72.3243 19.3459L72.1685 19.4714L72.1725 19.476L72.3243 19.3459ZM71.8129 19.005L71.7335 19.1885L71.7358 19.1895L71.8129 19.005ZM70.8488 18.7173L70.8917 18.522L70.891 18.5218L70.8488 18.7173ZM69.7622 18.483L69.7198 18.6784L69.72 18.6785L69.7622 18.483ZM67.477 17.4336L67.344 17.5829L67.345 17.5838L67.477 17.4336ZM66.6514 15.4148L66.8514 15.4156L66.8514 15.4137L66.6514 15.4148ZM67.2053 13.5984L67.0431 13.4814L67.043 13.4816L67.2053 13.5984ZM68.7661 12.3786L68.6861 12.1952L68.6858 12.1954L68.7661 12.3786ZM73.347 12.3839L73.2637 12.5657V12.5657L73.347 12.3839ZM74.8332 13.6303L74.6654 13.7392L74.6663 13.7405L74.8332 13.6303ZM75.3659 15.5V15.7H75.5669L75.5659 15.499L75.3659 15.5ZM72.5321 15.5L72.7314 15.4841C72.6994 15.0841 72.5462 14.7541 72.2608 14.5156L72.1325 14.669L72.0043 14.8225C72.1948 14.9817 72.3079 15.2057 72.3327 15.5159L72.5321 15.5ZM72.1325 14.669L72.2619 14.5165C71.976 14.2739 71.5635 14.1707 71.0619 14.1707V14.3707V14.5707C71.5191 14.5707 71.8204 14.6664 72.0032 14.8215L72.1325 14.669ZM71.0619 14.3707V14.1707C70.7423 14.1707 70.4655 14.2095 70.2395 14.2958L70.3108 14.4826L70.3822 14.6694C70.5468 14.6066 70.7706 14.5707 71.0619 14.5707V14.3707ZM70.3108 14.4826L70.2413 14.295C70.0247 14.3753 69.8459 14.4924 69.7241 14.6563L69.8847 14.7756L70.0452 14.8948C70.1081 14.8102 70.2134 14.7319 70.3803 14.6701L70.3108 14.4826ZM69.8847 14.7756L69.7241 14.6563C69.6062 14.815 69.5453 14.9975 69.5409 15.1973L69.7409 15.2017L69.9408 15.2061C69.9435 15.0863 69.9784 14.9847 70.0452 14.8948L69.8847 14.7756ZM69.7409 15.2017L69.5411 15.1909C69.5324 15.3532 69.5608 15.5073 69.6312 15.648L69.8101 15.5586L69.989 15.4692C69.9528 15.3968 69.9351 15.313 69.9406 15.2125L69.7409 15.2017ZM69.8101 15.5586L69.635 15.6552C69.7097 15.7906 69.8218 15.906 69.9611 16.0043L70.0764 15.8409L70.1918 15.6775C70.0896 15.6054 70.0242 15.5326 69.9852 15.462L69.8101 15.5586ZM70.0764 15.8409L69.9644 16.0066C70.103 16.1004 70.2738 16.1817 70.4724 16.2529L70.5399 16.0646L70.6074 15.8764C70.4295 15.8126 70.2913 15.7448 70.1885 15.6753L70.0764 15.8409ZM70.5399 16.0646L70.4724 16.2529C70.6718 16.3244 70.9051 16.387 71.1708 16.4416L71.211 16.2457L71.2513 16.0498C70.9985 15.9979 70.7844 15.9398 70.6074 15.8764L70.5399 16.0646ZM71.211 16.2457L71.1691 16.4413L72.064 16.6331L72.1059 16.4375L72.1478 16.2419L71.2529 16.0502L71.211 16.2457ZM72.1059 16.4375L72.0645 16.6332C72.6565 16.7585 73.1569 16.9227 73.5683 17.1233L73.656 16.9435L73.7436 16.7638C73.2957 16.5454 72.7627 16.3721 72.1473 16.2418L72.1059 16.4375ZM73.656 16.9435L73.5683 17.1233C73.9813 17.3247 74.3124 17.5586 74.5666 17.8226L74.7107 17.6839L74.8548 17.5453C74.562 17.2411 74.1901 16.9814 73.7436 16.7638L73.656 16.9435ZM74.7107 17.6839L74.5674 17.8235C74.822 18.0848 75.0069 18.3768 75.1246 18.7005L75.3126 18.6321L75.5005 18.5638C75.3626 18.1843 75.1462 17.8442 74.8539 17.5444L74.7107 17.6839ZM75.3126 18.6321L75.1252 18.7021C75.2476 19.0296 75.3116 19.3897 75.315 19.7844L75.515 19.7827L75.715 19.781C75.7113 19.3446 75.6403 18.9377 75.4999 18.5621L75.3126 18.6321ZM75.515 19.7827L75.315 19.7817C75.3116 20.4651 75.1414 21.0302 74.8143 21.4882L74.977 21.6044L75.1398 21.7207C75.5229 21.1843 75.7113 20.5349 75.715 19.7837L75.515 19.7827ZM74.977 21.6044L74.8143 21.4882C74.4851 21.949 74.0109 22.3054 73.3805 22.5528L73.4536 22.739L73.5266 22.9252C74.2172 22.6541 74.7587 22.2541 75.1398 21.7207L74.977 21.6044ZM73.4536 22.739L73.3802 22.553C72.7525 22.8006 71.9887 22.9278 71.0832 22.9278V23.1278V23.3278C72.0243 23.3278 72.8407 23.1958 73.527 22.925L73.4536 22.739ZM71.0832 23.1278V22.9278C70.1543 22.9278 69.3529 22.7904 68.6747 22.5211L68.6009 22.707L68.5271 22.8929C69.2623 23.1848 70.1158 23.3278 71.0832 23.3278V23.1278ZM68.6009 22.707L68.6751 22.5213C68.0063 22.2544 67.4928 21.8474 67.1264 21.3012L66.9603 21.4126L66.7942 21.524C67.2091 22.1426 67.7894 22.5986 68.5268 22.8928L68.6009 22.707ZM66.9603 21.4126L67.1272 21.3024C66.7671 20.7574 66.5778 20.0492 66.5744 19.164L66.3744 19.1648L66.1744 19.1656C66.178 20.1056 66.3793 20.896 66.7934 21.5229L66.9603 21.4126ZM66.3744 19.1648V19.3648H69.1869V19.1648V18.9648H66.3744V19.1648ZM69.1869 19.1648L68.9872 19.1754C69.0064 19.5365 69.0975 19.8532 69.27 20.1161L69.4372 20.0064L69.6044 19.8967C69.4787 19.7051 69.4029 19.4607 69.3866 19.1541L69.1869 19.1648ZM69.4372 20.0064L69.27 20.1161C69.4423 20.3787 69.6836 20.5752 69.9861 20.7065L70.0658 20.5231L70.1454 20.3396C69.9082 20.2366 69.7304 20.0887 69.6044 19.8967L69.4372 20.0064ZM70.0658 20.5231L69.987 20.7069C70.291 20.8372 70.644 20.8989 71.0406 20.8989V20.6989V20.4989C70.6843 20.4989 70.3875 20.4433 70.1446 20.3393L70.0658 20.5231ZM71.0406 20.6989V20.8989C71.3716 20.8989 71.6612 20.8582 71.9031 20.7695L71.8343 20.5817L71.7654 20.3939C71.5812 20.4614 71.3417 20.4989 71.0406 20.4989V20.6989ZM71.8343 20.5817L71.9031 20.7695C72.1411 20.6822 72.337 20.5555 72.4755 20.3812L72.319 20.2567L72.1624 20.1323C72.0808 20.235 71.9536 20.3249 71.7654 20.3939L71.8343 20.5817ZM72.319 20.2567L72.4755 20.3812C72.613 20.2082 72.685 20.0079 72.6894 19.7867L72.4894 19.7827L72.2895 19.7787C72.2868 19.9126 72.2451 20.0283 72.1624 20.1323L72.319 20.2567ZM72.4894 19.7827L72.6894 19.7784C72.6849 19.5662 72.6135 19.3759 72.4762 19.2157L72.3243 19.3459L72.1725 19.476C72.2482 19.5644 72.2869 19.6653 72.2895 19.7869L72.4894 19.7827ZM72.3243 19.3459L72.4801 19.2204C72.3476 19.0559 72.1428 18.9261 71.8901 18.8204L71.8129 19.005L71.7358 19.1895C71.9589 19.2827 72.0951 19.3801 72.1686 19.4713L72.3243 19.3459ZM71.8129 19.005L71.8924 18.8214C71.6378 18.7112 71.3025 18.6121 70.8917 18.522L70.8488 18.7173L70.806 18.9127C71.2047 19.0001 71.5122 19.0927 71.7335 19.1885L71.8129 19.005ZM70.8488 18.7173L70.891 18.5218L69.8043 18.2875L69.7622 18.483L69.72 18.6785L70.8066 18.9128L70.8488 18.7173ZM69.7622 18.483L69.8046 18.2875C68.8613 18.0829 68.1339 17.7448 67.609 17.2834L67.477 17.4336L67.345 17.5838C67.9351 18.1026 68.7312 18.464 69.7198 18.6784L69.7622 18.483ZM67.477 17.4336L67.6101 17.2843C67.1055 16.8347 66.848 16.22 66.8514 15.4156L66.6514 15.4148L66.4514 15.4139C66.4476 16.3141 66.7406 17.0453 67.344 17.5829L67.477 17.4336ZM66.6514 15.4148L66.8514 15.4137C66.848 14.7598 67.0216 14.1964 67.3677 13.7151L67.2053 13.5984L67.043 13.4816C66.6433 14.0373 66.4476 14.6848 66.4514 15.4158L66.6514 15.4148ZM67.2053 13.5984L67.3676 13.7153C67.7205 13.2258 68.2108 12.8404 68.8464 12.5617L68.7661 12.3786L68.6858 12.1954C67.9932 12.4991 67.443 12.9269 67.0431 13.4814L67.2053 13.5984ZM68.7661 12.3786L68.846 12.5619C69.4842 12.2835 70.2215 12.1418 71.0619 12.1418V11.9418V11.7418C70.1764 11.7418 69.3832 11.8912 68.6861 12.1952L68.7661 12.3786ZM71.0619 11.9418V12.1418C71.9207 12.1418 72.6527 12.2855 73.2637 12.5657L73.347 12.3839L73.4304 12.2021C72.7559 11.8928 71.9645 11.7418 71.0619 11.7418V11.9418ZM73.347 12.3839L73.2637 12.5657C73.8757 12.8463 74.3402 13.2381 74.6654 13.7392L74.8332 13.6303L75.0009 13.5214C74.6301 12.9501 74.1038 12.5109 73.4304 12.2021L73.347 12.3839ZM74.8332 13.6303L74.6663 13.7405C74.994 14.237 75.1625 14.8213 75.1659 15.501L75.3659 15.5L75.5659 15.499C75.5621 14.7512 75.3755 14.089 75.0001 13.5202L74.8332 13.6303ZM75.3659 15.5V15.3H72.5321V15.5V15.7H75.3659V15.5ZM83.4012 8.57528H83.6012V8.37528H83.4012V8.57528ZM83.4012 26.5156V26.7156H83.6012V26.5156H83.4012ZM80.5248 26.5156H80.3248V26.7156H80.5248V26.5156ZM80.5248 8.57528V8.37528H80.3248V8.57528H80.5248ZM83.4012 8.57528H83.2012V26.5156H83.4012H83.6012V8.57528H83.4012ZM83.4012 26.5156V26.3156H80.5248V26.5156V26.7156H83.4012V26.5156ZM80.5248 26.5156H80.7248V8.57528H80.5248H80.3248V26.5156H80.5248ZM80.5248 8.57528V8.77528H83.4012V8.57528V8.37528H80.5248V8.57528ZM88.6973 23H88.4973V23.2H88.6973V23ZM88.6973 12.0909V11.8909H88.4973V12.0909H88.6973ZM96.9483 13.8061L97.1191 13.7021V13.7021L96.9483 13.8061ZM96.9324 17.7745L96.7646 17.6656L96.7641 17.6664L96.9324 17.7745ZM95.4782 18.989L95.398 18.8058L95.3976 18.8059L95.4782 18.989ZM90.487 19.3991H90.287V19.5991H90.487V19.3991ZM90.487 17.098V16.898H90.287V17.098H90.487ZM93.5925 16.9702L93.6582 17.1591L93.6598 17.1585L93.5925 16.9702ZM94.1625 16.5494L93.9989 16.4343L93.9975 16.4363L94.1625 16.5494ZM94.1625 15.0366L93.9956 15.1469L93.9979 15.1503L94.1625 15.0366ZM93.5925 14.5998L93.5196 14.7861L93.5229 14.7873L93.5925 14.5998ZM91.6589 14.456V14.256H91.4589V14.456H91.6589ZM91.6589 23V23.2H91.8589V23H91.6589ZM95.0893 17.9929L95.2649 17.8972L95.2081 17.7929H95.0893V17.9929ZM97.8166 23V23.2H98.1533L97.9922 22.9043L97.8166 23ZM94.5993 23L94.4227 23.0939L94.4791 23.2H94.5993V23ZM91.9359 17.9929V17.7929H91.603L91.7593 18.0868L91.9359 17.9929ZM88.6973 23H88.8973V12.0909H88.6973H88.4973V23H88.6973ZM88.6973 12.0909V12.2909H93.4061V12.0909V11.8909H88.6973V12.0909ZM93.4061 12.0909V12.2909C94.1914 12.2909 94.869 12.4338 95.4441 12.713L95.5314 12.533L95.6188 12.3531C94.9794 12.0428 94.24 11.8909 93.4061 11.8909V12.0909ZM95.5314 12.533L95.4441 12.713C96.0183 12.9916 96.461 13.3903 96.7775 13.9101L96.9483 13.8061L97.1191 13.7021C96.761 13.1139 96.2591 12.6639 95.6188 12.3531L95.5314 12.533ZM96.9483 13.8061L96.7775 13.9101C97.0924 14.4272 97.2544 15.0537 97.2544 15.7983H97.4544H97.6544C97.6544 14.9946 97.479 14.293 97.1191 13.7021L96.9483 13.8061ZM97.4544 15.7983H97.2544C97.2544 16.5495 97.0873 17.1684 96.7646 17.6656L96.9324 17.7745L97.1001 17.8834C97.4734 17.3082 97.6544 16.6096 97.6544 15.7983H97.4544ZM96.9324 17.7745L96.7641 17.6664C96.4425 18.1671 95.9895 18.547 95.398 18.8058L95.4782 18.989L95.5583 19.1722C96.2168 18.8841 96.7333 18.4544 97.1006 17.8826L96.9324 17.7745ZM95.4782 18.989L95.3976 18.8059C94.8066 19.066 94.1088 19.1991 93.2995 19.1991V19.3991V19.5991C94.1522 19.5991 94.9069 19.4589 95.5587 19.1721L95.4782 18.989ZM93.2995 19.3991V19.1991H90.487V19.3991V19.5991H93.2995V19.3991ZM90.487 19.3991H90.687V17.098H90.487H90.287V19.3991H90.487ZM90.487 17.098V17.298H92.7029V17.098V16.898H90.487V17.098ZM92.7029 17.098V17.298C93.0662 17.298 93.3862 17.2537 93.6582 17.1591L93.5925 16.9702L93.5268 16.7813C93.3087 16.8571 93.0357 16.898 92.7029 16.898V17.098ZM93.5925 16.9702L93.6598 17.1585C93.9424 17.0576 94.1691 16.8935 94.3274 16.6624L94.1625 16.5494L93.9975 16.4363C93.8931 16.5887 93.7397 16.7052 93.5252 16.7818L93.5925 16.9702ZM94.1625 16.5494L94.326 16.6645C94.4912 16.4298 94.5649 16.1355 94.5649 15.7983H94.3649H94.1649C94.1649 16.079 94.1036 16.2854 93.9989 16.4343L94.1625 16.5494ZM94.3649 15.7983H94.5649C94.5649 15.4579 94.4913 15.1607 94.327 14.9229L94.1625 15.0366L93.9979 15.1503C94.1035 15.303 94.1649 15.5137 94.1649 15.7983H94.3649ZM94.1625 15.0366L94.3293 14.9263C94.1719 14.6881 93.9458 14.5177 93.6621 14.4123L93.5925 14.5998L93.5229 14.7873C93.7364 14.8666 93.8902 14.9873 93.9956 15.1468L94.1625 15.0366ZM93.5925 14.5998L93.6654 14.4135C93.391 14.3062 93.0683 14.256 92.7029 14.256V14.456V14.656C93.0336 14.656 93.304 14.7017 93.5196 14.786L93.5925 14.5998ZM92.7029 14.456V14.256H91.6589V14.456V14.656H92.7029V14.456ZM91.6589 14.456H91.4589V23H91.6589H91.8589V14.456H91.6589ZM91.6589 23V22.8H88.6973V23V23.2H91.6589V23ZM95.0893 17.9929L94.9137 18.0886L97.6409 23.0957L97.8166 23L97.9922 22.9043L95.2649 17.8972L95.0893 17.9929ZM97.8166 23V22.8H94.5993V23V23.2H97.8166V23ZM94.5993 23L94.7758 22.9061L92.1125 17.899L91.9359 17.9929L91.7593 18.0868L94.4227 23.0939L94.5993 23ZM91.9359 17.9929V18.1929H95.0893V17.9929V17.7929H91.9359V17.9929ZM105.173 12.0909V11.8909H104.973V12.0909H105.173ZM108.134 12.0909H108.334V11.8909H108.134V12.0909ZM107.538 21.2369L107.371 21.1273L107.37 21.1275L107.538 21.2369ZM105.887 22.6378L105.97 22.8193L105.971 22.819L105.887 22.6378ZM100.954 22.6378L100.869 22.819L100.87 22.8193L100.954 22.6378ZM99.3027 21.2369L99.1345 21.3451L99.1353 21.3462L99.3027 21.2369ZM98.7168 12.0909V11.8909H98.5168V12.0909H98.7168ZM101.678 12.0909H101.878V11.8909H101.678V12.0909ZM101.902 19.7294L101.728 19.8271L101.728 19.8281L101.902 19.7294ZM102.52 20.3473L102.421 20.5212L102.422 20.5218L102.52 20.3473ZM104.331 20.3473L104.43 20.5212V20.5212L104.331 20.3473ZM104.949 19.7294L105.123 19.8281L105.124 19.8271L104.949 19.7294ZM105.173 12.0909V12.2909H108.134V12.0909V11.8909H105.173V12.0909ZM108.134 12.0909H107.934V19.0795H108.134H108.334V12.0909H108.134ZM108.134 19.0795H107.934C107.934 19.8774 107.744 20.5571 107.371 21.1273L107.538 21.2369L107.705 21.3464C108.127 20.7021 108.334 19.9437 108.334 19.0795H108.134ZM107.538 21.2369L107.37 21.1275C106.998 21.6975 106.478 22.1408 105.802 22.4566L105.887 22.6378L105.971 22.819C106.709 22.4743 107.289 21.9836 107.705 21.3462L107.538 21.2369ZM105.887 22.6378L105.803 22.4562C105.127 22.7686 104.336 22.9278 103.426 22.9278V23.1278V23.3278C104.383 23.3278 105.233 23.1604 105.97 22.8193L105.887 22.6378ZM103.426 23.1278V22.9278C102.508 22.9278 101.713 22.7685 101.038 22.4562L100.954 22.6378L100.87 22.8193C101.608 23.1605 102.462 23.3278 103.426 23.3278V23.1278ZM100.954 22.6378L101.039 22.4566C100.363 22.1408 99.8423 21.6975 99.4702 21.1275L99.3027 21.2369L99.1353 21.3462C99.5515 21.9836 100.132 22.4743 100.869 22.819L100.954 22.6378ZM99.3027 21.2369L99.4709 21.1287C99.1041 20.5583 98.9168 19.8781 98.9168 19.0795H98.7168H98.5168C98.5168 19.943 98.7202 20.7009 99.1345 21.3451L99.3027 21.2369ZM98.7168 19.0795H98.9168V12.0909H98.7168H98.5168V19.0795H98.7168ZM98.7168 12.0909V12.2909H101.678V12.0909V11.8909H98.7168V12.0909ZM101.678 12.0909H101.478V18.8239H101.678H101.878V12.0909H101.678ZM101.678 18.8239H101.478C101.478 19.1918 101.56 19.5279 101.728 19.8271L101.902 19.7294L102.077 19.6317C101.946 19.3983 101.878 19.1307 101.878 18.8239H101.678ZM101.902 19.7294L101.728 19.8281C101.895 20.1223 102.127 20.3543 102.421 20.5212L102.52 20.3473L102.619 20.1734C102.387 20.042 102.207 19.8621 102.076 19.6307L101.902 19.7294ZM102.52 20.3473L102.422 20.5218C102.722 20.6894 103.058 20.771 103.426 20.771V20.571V20.371C103.119 20.371 102.851 20.3035 102.618 20.1728L102.52 20.3473ZM103.426 20.571V20.771C103.797 20.771 104.133 20.6896 104.43 20.5212L104.331 20.3473L104.232 20.1734C104.003 20.3033 103.736 20.371 103.426 20.371V20.571ZM104.331 20.3473L104.43 20.5212C104.724 20.3543 104.956 20.1223 105.123 19.8281L104.949 19.7294L104.775 19.6307C104.644 19.8621 104.464 20.042 104.232 20.1734L104.331 20.3473ZM104.949 19.7294L105.124 19.8271C105.291 19.5279 105.373 19.1918 105.373 18.8239H105.173H104.973C104.973 19.1307 104.905 19.3983 104.775 19.6317L104.949 19.7294ZM105.173 18.8239H105.373V12.0909H105.173H104.973V18.8239H105.173ZM115.423 15.5L115.223 15.5159L115.238 15.7H115.423V15.5ZM115.023 14.669L114.894 14.8215L114.895 14.8225L115.023 14.669ZM113.201 14.4826L113.271 14.6702L113.273 14.6694L113.201 14.4826ZM112.775 14.7756L112.615 14.6563V14.6563L112.775 14.7756ZM112.631 15.2017L112.831 15.2125L112.831 15.2061L112.631 15.2017ZM112.701 15.5586L112.522 15.6481L112.526 15.6552L112.701 15.5586ZM112.967 15.8409L112.852 16.0043L112.855 16.0066L112.967 15.8409ZM114.102 16.2457L114.144 16.0502L114.142 16.0498L114.102 16.2457ZM114.997 16.4375L114.955 16.6331L114.955 16.6332L114.997 16.4375ZM117.601 17.6839L117.457 17.8226L117.458 17.8235L117.601 17.6839ZM118.203 18.6321L118.015 18.7005L118.016 18.7021L118.203 18.6321ZM118.406 19.7827L118.606 19.7837L118.606 19.781L118.406 19.7827ZM117.868 21.6044L118.03 21.7207V21.7207L117.868 21.6044ZM116.344 22.739L116.271 22.5528L116.271 22.553L116.344 22.739ZM111.492 22.707L111.417 22.8928L111.418 22.8929L111.492 22.707ZM109.851 21.4126L109.684 21.5229L109.685 21.524L109.851 21.4126ZM109.265 19.1648V18.9648H109.064L109.065 19.1656L109.265 19.1648ZM112.078 19.1648L112.277 19.1541L112.267 18.9648H112.078V19.1648ZM112.328 20.0064L112.161 20.1161V20.1161L112.328 20.0064ZM112.956 20.5231L112.877 20.7065L112.878 20.7069L112.956 20.5231ZM114.725 20.5817L114.794 20.7695V20.7695L114.725 20.5817ZM115.21 20.2567L115.366 20.3812V20.3812L115.21 20.2567ZM115.38 19.7827L115.58 19.7867L115.58 19.7784L115.38 19.7827ZM115.215 19.3459L115.059 19.4714L115.063 19.476L115.215 19.3459ZM114.704 19.005L114.624 19.1885L114.626 19.1895L114.704 19.005ZM113.739 18.7173L113.782 18.522L113.782 18.5218L113.739 18.7173ZM112.653 18.483L112.61 18.6784L112.611 18.6785L112.653 18.483ZM110.368 17.4336L110.235 17.5829L110.236 17.5838L110.368 17.4336ZM109.542 15.4148L109.742 15.4156L109.742 15.4137L109.542 15.4148ZM110.096 13.5984L109.934 13.4814L109.934 13.4816L110.096 13.5984ZM111.657 12.3786L111.577 12.1952L111.576 12.1954L111.657 12.3786ZM116.238 12.3839L116.154 12.5657V12.5657L116.238 12.3839ZM117.724 13.6303L117.556 13.7392L117.557 13.7405L117.724 13.6303ZM118.256 15.5V15.7H118.457L118.456 15.499L118.256 15.5ZM115.423 15.5L115.622 15.4841C115.59 15.0841 115.437 14.7541 115.151 14.5156L115.023 14.669L114.895 14.8225C115.085 14.9817 115.198 15.2057 115.223 15.5159L115.423 15.5ZM115.023 14.669L115.153 14.5165C114.867 14.2739 114.454 14.1707 113.953 14.1707V14.3707V14.5707C114.41 14.5707 114.711 14.6664 114.894 14.8215L115.023 14.669ZM113.953 14.3707V14.1707C113.633 14.1707 113.356 14.2095 113.13 14.2958L113.201 14.4826L113.273 14.6694C113.437 14.6066 113.661 14.5707 113.953 14.5707V14.3707ZM113.201 14.4826L113.132 14.295C112.915 14.3753 112.737 14.4924 112.615 14.6563L112.775 14.7756L112.936 14.8948C112.999 14.8102 113.104 14.7319 113.271 14.6701L113.201 14.4826ZM112.775 14.7756L112.615 14.6563C112.497 14.815 112.436 14.9975 112.432 15.1973L112.631 15.2017L112.831 15.2061C112.834 15.0863 112.869 14.9847 112.936 14.8948L112.775 14.7756ZM112.631 15.2017L112.432 15.1909C112.423 15.3532 112.451 15.5073 112.522 15.648L112.701 15.5586L112.88 15.4692C112.843 15.3968 112.826 15.313 112.831 15.2125L112.631 15.2017ZM112.701 15.5586L112.526 15.6552C112.6 15.7906 112.712 15.906 112.852 16.0043L112.967 15.8409L113.082 15.6775C112.98 15.6054 112.915 15.5326 112.876 15.462L112.701 15.5586ZM112.967 15.8409L112.855 16.0066C112.994 16.1004 113.164 16.1817 113.363 16.2529L113.43 16.0646L113.498 15.8764C113.32 15.8126 113.182 15.7448 113.079 15.6753L112.967 15.8409ZM113.43 16.0646L113.363 16.2529C113.562 16.3244 113.796 16.387 114.061 16.4416L114.102 16.2457L114.142 16.0498C113.889 15.9979 113.675 15.9398 113.498 15.8764L113.43 16.0646ZM114.102 16.2457L114.06 16.4413L114.955 16.6331L114.997 16.4375L115.038 16.2419L114.144 16.0502L114.102 16.2457ZM114.997 16.4375L114.955 16.6332C115.547 16.7585 116.048 16.9227 116.459 17.1233L116.547 16.9435L116.634 16.7638C116.186 16.5454 115.653 16.3721 115.038 16.2418L114.997 16.4375ZM116.547 16.9435L116.459 17.1233C116.872 17.3247 117.203 17.5586 117.457 17.8226L117.601 17.6839L117.745 17.5453C117.453 17.2411 117.081 16.9814 116.634 16.7638L116.547 16.9435ZM117.601 17.6839L117.458 17.8235C117.713 18.0848 117.898 18.3768 118.015 18.7005L118.203 18.6321L118.391 18.5638C118.253 18.1843 118.037 17.8442 117.745 17.5444L117.601 17.6839ZM118.203 18.6321L118.016 18.7021C118.138 19.0296 118.202 19.3897 118.206 19.7844L118.406 19.7827L118.606 19.781C118.602 19.3446 118.531 18.9377 118.391 18.5621L118.203 18.6321ZM118.406 19.7827L118.206 19.7817C118.202 20.4651 118.032 21.0302 117.705 21.4882L117.868 21.6044L118.03 21.7207C118.413 21.1843 118.602 20.5349 118.606 19.7837L118.406 19.7827ZM117.868 21.6044L117.705 21.4882C117.376 21.949 116.902 22.3054 116.271 22.5528L116.344 22.739L116.417 22.9252C117.108 22.6541 117.649 22.2541 118.03 21.7207L117.868 21.6044ZM116.344 22.739L116.271 22.553C115.643 22.8006 114.879 22.9278 113.974 22.9278V23.1278V23.3278C114.915 23.3278 115.731 23.1958 116.418 22.925L116.344 22.739ZM113.974 23.1278V22.9278C113.045 22.9278 112.244 22.7904 111.565 22.5211L111.492 22.707L111.418 22.8929C112.153 23.1848 113.006 23.3278 113.974 23.3278V23.1278ZM111.492 22.707L111.566 22.5213C110.897 22.2544 110.383 21.8474 110.017 21.3012L109.851 21.4126L109.685 21.524C110.1 22.1426 110.68 22.5986 111.417 22.8928L111.492 22.707ZM109.851 21.4126L110.018 21.3024C109.658 20.7574 109.468 20.0492 109.465 19.164L109.265 19.1648L109.065 19.1656C109.069 20.1056 109.27 20.896 109.684 21.5229L109.851 21.4126ZM109.265 19.1648V19.3648H112.078V19.1648V18.9648H109.265V19.1648ZM112.078 19.1648L111.878 19.1754C111.897 19.5365 111.988 19.8532 112.161 20.1161L112.328 20.0064L112.495 19.8967C112.369 19.7051 112.294 19.4607 112.277 19.1541L112.078 19.1648ZM112.328 20.0064L112.161 20.1161C112.333 20.3787 112.574 20.5752 112.877 20.7065L112.956 20.5231L113.036 20.3396C112.799 20.2366 112.621 20.0887 112.495 19.8967L112.328 20.0064ZM112.956 20.5231L112.878 20.7069C113.182 20.8372 113.535 20.8989 113.931 20.8989V20.6989V20.4989C113.575 20.4989 113.278 20.4433 113.035 20.3393L112.956 20.5231ZM113.931 20.6989V20.8989C114.262 20.8989 114.552 20.8582 114.794 20.7695L114.725 20.5817L114.656 20.3939C114.472 20.4614 114.232 20.4989 113.931 20.4989V20.6989ZM114.725 20.5817L114.794 20.7695C115.032 20.6822 115.228 20.5555 115.366 20.3812L115.21 20.2567L115.053 20.1323C114.971 20.235 114.844 20.3249 114.656 20.3939L114.725 20.5817ZM115.21 20.2567L115.366 20.3812C115.504 20.2082 115.576 20.0079 115.58 19.7867L115.38 19.7827L115.18 19.7787C115.177 19.9126 115.136 20.0283 115.053 20.1323L115.21 20.2567ZM115.38 19.7827L115.58 19.7784C115.576 19.5662 115.504 19.3759 115.367 19.2157L115.215 19.3459L115.063 19.476C115.139 19.5644 115.178 19.6653 115.18 19.7869L115.38 19.7827ZM115.215 19.3459L115.371 19.2204C115.238 19.0559 115.033 18.9261 114.781 18.8204L114.704 19.005L114.626 19.1895C114.85 19.2827 114.986 19.3801 115.059 19.4713L115.215 19.3459ZM114.704 19.005L114.783 18.8214C114.528 18.7112 114.193 18.6121 113.782 18.522L113.739 18.7173L113.697 18.9127C114.095 19.0001 114.403 19.0927 114.624 19.1885L114.704 19.005ZM113.739 18.7173L113.782 18.5218L112.695 18.2875L112.653 18.483L112.611 18.6785L113.697 18.9128L113.739 18.7173ZM112.653 18.483L112.695 18.2875C111.752 18.0829 111.025 17.7448 110.5 17.2834L110.368 17.4336L110.236 17.5838C110.826 18.1026 111.622 18.464 112.61 18.6784L112.653 18.483ZM110.368 17.4336L110.501 17.2843C109.996 16.8347 109.739 16.22 109.742 15.4156L109.542 15.4148L109.342 15.4139C109.338 16.3141 109.631 17.0453 110.235 17.5829L110.368 17.4336ZM109.542 15.4148L109.742 15.4137C109.739 14.7598 109.912 14.1964 110.258 13.7151L110.096 13.5984L109.934 13.4816C109.534 14.0373 109.338 14.6848 109.342 15.4158L109.542 15.4148ZM110.096 13.5984L110.258 13.7153C110.611 13.2258 111.101 12.8404 111.737 12.5617L111.657 12.3786L111.576 12.1954C110.884 12.4991 110.334 12.9269 109.934 13.4814L110.096 13.5984ZM111.657 12.3786L111.737 12.5619C112.375 12.2835 113.112 12.1418 113.953 12.1418V11.9418V11.7418C113.067 11.7418 112.274 11.8912 111.577 12.1952L111.657 12.3786ZM113.953 11.9418V12.1418C114.811 12.1418 115.543 12.2855 116.154 12.5657L116.238 12.3839L116.321 12.2021C115.647 11.8928 114.855 11.7418 113.953 11.7418V11.9418ZM116.238 12.3839L116.154 12.5657C116.766 12.8463 117.231 13.2381 117.556 13.7392L117.724 13.6303L117.892 13.5214C117.521 12.9501 116.994 12.5109 116.321 12.2021L116.238 12.3839ZM117.724 13.6303L117.557 13.7405C117.885 14.237 118.053 14.8213 118.056 15.501L118.256 15.5L118.456 15.499C118.453 14.7512 118.266 14.089 117.891 13.5202L117.724 13.6303ZM118.256 15.5V15.3H115.423V15.5V15.7H118.256V15.5ZM119.234 14.4773H119.034V14.6773H119.234V14.4773ZM119.234 12.0909V11.8909H119.034V12.0909H119.234ZM128.715 12.0909H128.915V11.8909H128.715V12.0909ZM128.715 14.4773V14.6773H128.915V14.4773H128.715ZM125.434 14.4773V14.2773H125.234V14.4773H125.434ZM125.434 23V23.2H125.634V23H125.434ZM122.515 23H122.315V23.2H122.515V23ZM122.515 14.4773H122.715V14.2773H122.515V14.4773ZM119.234 14.4773H119.434V12.0909H119.234H119.034V14.4773H119.234ZM119.234 12.0909V12.2909H128.715V12.0909V11.8909H119.234V12.0909ZM128.715 12.0909H128.515V14.4773H128.715H128.915V12.0909H128.715ZM128.715 14.4773V14.2773H125.434V14.4773V14.6773H128.715V14.4773ZM125.434 14.4773H125.234V23H125.434H125.634V14.4773H125.434ZM125.434 23V22.8H122.515V23V23.2H125.434V23ZM122.515 23H122.715V14.4773H122.515H122.315V23H122.515ZM122.515 14.4773V14.2773H119.234V14.4773V14.6773H122.515V14.4773ZM129.83 23H129.63V23.2H129.83V23ZM129.83 12.0909V11.8909H129.63V12.0909H129.83ZM137.692 12.0909H137.892V11.8909H137.692V12.0909ZM137.692 14.4773V14.6773H137.892V14.4773H137.692ZM132.792 14.4773V14.2773H132.592V14.4773H132.792ZM132.792 16.3523H132.592V16.5523H132.792V16.3523ZM137.287 16.3523H137.487V16.1523H137.287V16.3523ZM137.287 18.7386V18.9386H137.487V18.7386H137.287ZM132.792 18.7386V18.5386H132.592V18.7386H132.792ZM132.792 20.6136H132.592V20.8136H132.792V20.6136ZM137.671 20.6136H137.871V20.4136H137.671V20.6136ZM137.671 23V23.2H137.871V23H137.671ZM129.83 23H130.03V12.0909H129.83H129.63V23H129.83ZM129.83 12.0909V12.2909H137.692V12.0909V11.8909H129.83V12.0909ZM137.692 12.0909H137.492V14.4773H137.692H137.892V12.0909H137.692ZM137.692 14.4773V14.2773H132.792V14.4773V14.6773H137.692V14.4773ZM132.792 14.4773H132.592V16.3523H132.792H132.992V14.4773H132.792ZM132.792 16.3523V16.5523H137.287V16.3523V16.1523H132.792V16.3523ZM137.287 16.3523H137.087V18.7386H137.287H137.487V16.3523H137.287ZM137.287 18.7386V18.5386H132.792V18.7386V18.9386H137.287V18.7386ZM132.792 18.7386H132.592V20.6136H132.792H132.992V18.7386H132.792ZM132.792 20.6136V20.8136H137.671V20.6136V20.4136H132.792V20.6136ZM137.671 20.6136H137.471V23H137.671H137.871V20.6136H137.671ZM137.671 23V22.8H129.83V23V23.2H137.671V23ZM139.161 12.0909V11.8909H138.961V12.0909H139.161ZM142.847 12.0909L143.032 12.015L142.981 11.8909H142.847V12.0909ZM145.383 18.2699L145.198 18.3458L145.249 18.4699H145.383V18.2699ZM145.511 18.2699V18.4699H145.645L145.696 18.3458L145.511 18.2699ZM148.046 12.0909V11.8909H147.912L147.861 12.015L148.046 12.0909ZM151.732 12.0909H151.932V11.8909H151.732V12.0909ZM151.732 23V23.2H151.932V23H151.732ZM148.834 23H148.634V23.2H148.834V23ZM148.834 16.6932H149.034V16.4932H148.834V16.6932ZM148.749 16.6932V16.4932H148.613L148.563 16.6204L148.749 16.6932ZM146.32 22.9148V23.1148H146.457L146.507 22.9875L146.32 22.9148ZM144.573 22.9148L144.387 22.9871L144.436 23.1148H144.573V22.9148ZM142.144 16.6506L142.331 16.5783L142.281 16.4506H142.144V16.6506ZM142.059 16.6506V16.4506H141.859V16.6506H142.059ZM142.059 23V23.2H142.259V23H142.059ZM139.161 23H138.961V23.2H139.161V23ZM139.161 12.0909V12.2909H142.847V12.0909V11.8909H139.161V12.0909ZM142.847 12.0909L142.662 12.1668L145.198 18.3458L145.383 18.2699L145.568 18.194L143.032 12.015L142.847 12.0909ZM145.383 18.2699V18.4699H145.511V18.2699V18.0699H145.383V18.2699ZM145.511 18.2699L145.696 18.3458L148.231 12.1668L148.046 12.0909L147.861 12.015L145.326 18.194L145.511 18.2699ZM148.046 12.0909V12.2909H151.732V12.0909V11.8909H148.046V12.0909ZM151.732 12.0909H151.532V23H151.732H151.932V12.0909H151.732ZM151.732 23V22.8H148.834V23V23.2H151.732V23ZM148.834 23H149.034V16.6932H148.834H148.634V23H148.834ZM148.834 16.6932V16.4932H148.749V16.6932V16.8932H148.834V16.6932ZM148.749 16.6932L148.563 16.6204L146.134 22.842L146.32 22.9148L146.507 22.9875L148.936 16.7659L148.749 16.6932ZM146.32 22.9148V22.7148H144.573V22.9148V23.1148H146.32V22.9148ZM144.573 22.9148L144.76 22.8425L142.331 16.5783L142.144 16.6506L141.958 16.7229L144.387 22.9871L144.573 22.9148ZM142.144 16.6506V16.4506H142.059V16.6506V16.8506H142.144V16.6506ZM142.059 16.6506H141.859V23H142.059H142.259V16.6506H142.059ZM142.059 23V22.8H139.161V23V23.2H142.059V23ZM139.161 23H139.361V12.0909H139.161H138.961V23H139.161Z" fill="black" mask="url(#path-10-outside-1_647_105)"/>
</g>
<defs>
<linearGradient id="paint0_linear_647_105" x1="169" y1="35" x2="1.12391e-06" y2="-5.4269e-06" gradientUnits="userSpaceOnUse">
<stop stop-color="#174620"/>
<stop offset="0.501962" stop-color="#81FF33"/>
<stop offset="1" stop-color="#174620"/>
</linearGradient>
<linearGradient id="paint1_linear_647_105" x1="94.2337" y1="19.0034" x2="93.536" y2="-9.08058" gradientUnits="userSpaceOnUse">
<stop stop-color="white"/>
<stop offset="1" stop-color="#999999" stop-opacity="0"/>
</linearGradient>
<linearGradient id="paint2_linear_647_105" x1="84" y1="35" x2="84" y2="-4.23554e-06" gradientUnits="userSpaceOnUse">
<stop stop-color="#7FFF7F"/>
<stop offset="1" stop-color="#A5FF74" stop-opacity="0"/>
</linearGradient>
<clipPath id="clip0_647_105">
<rect width="169" height="35" fill="white"/>
</clipPath>
</defs>
</svg>
